<svg id="Компонент_4_7" data-name="Компонент 4 – 7" xmlns="http://www.w3.org/2000/svg" viewBox="0 0 34 34">
  <rect id="Прямоугольник_6" data-name="Прямоугольник 6" width="34" height="34" fill="rgba(255,255,255,0)"/>
  <path id="Контур_22" data-name="Контур 22" d="M6.154,1.3a1.231,1.231,0,1,0-2.462,0,1.231,1.231,0,1,0,2.462,0Zm8.615,0a1.231,1.231,0,1,0-2.462,0,1.231,1.231,0,1,0,2.462,0ZM16-9.519a.631.631,0,0,0-.615-.636H3.837c-.1-.477-.106-1.273-.76-1.273H.615A.631.631,0,0,0,0-10.792a.631.631,0,0,0,.615.636H2.577l1.7,8.183A5.6,5.6,0,0,0,3.692-.61a.631.631,0,0,0,.615.636h9.846a.631.631,0,0,0,.615-.636.631.631,0,0,0-.615-.636H5.308a1.538,1.538,0,0,0,.231-.636,4.215,4.215,0,0,0-.125-.7L15.452-3.792A.636.636,0,0,0,16-4.429Z" transform="translate(9 21.429)" fill="currentColor"/>
</svg>
