<svg xmlns="http://www.w3.org/2000/svg" viewBox="0 0 10.975 10.975">
  <path id="Контур_83" data-name="Контур 83" d="M.415-9.963a.407.407,0,0,0-.3.172.543.543,0,0,0-.107.322A9.789,9.789,0,0,0,1.359-4.451,10,10,0,0,0,4.941-.869,9.789,9.789,0,0,0,9.96.482a.543.543,0,0,0,.322-.107.407.407,0,0,0,.172-.3l.515-2.231a.484.484,0,0,0-.043-.343.462.462,0,0,0-.257-.236l-2.4-1.03A.545.545,0,0,0,7.944-3.8a.431.431,0,0,0-.279.182L6.614-2.327A7.539,7.539,0,0,1,4.373-3.893,7.88,7.88,0,0,1,2.818-6.124L4.1-7.2a.513.513,0,0,0,.172-.268A.535.535,0,0,0,4.255-7.8l-1.03-2.4a.473.473,0,0,0-.236-.236.484.484,0,0,0-.343-.043Z" transform="translate(-0.008 10.492)" fill="currentColor"/>
</svg>
