<svg id="Компонент_3_6" data-name="Компонент 3 – 6" xmlns="http://www.w3.org/2000/svg" viewBox="0 0 34 34">
  <rect id="Прямоугольник_7" data-name="Прямоугольник 7" width="34" height="34" fill="rgba(255,255,255,0)"/>
  <path id="Контур_23" data-name="Контур 23" d="M4.927,3.332a.653.653,0,0,0,.573.293.653.653,0,0,0,.573-.293L7.992.52Q9.424-1.59,9.883-2.322a8.324,8.324,0,0,0,.888-1.772A5.445,5.445,0,0,0,11-5.75a5.524,5.524,0,0,0-.745-2.812A5.671,5.671,0,0,0,8.25-10.613a5.219,5.219,0,0,0-2.75-.762,5.219,5.219,0,0,0-2.75.762A5.671,5.671,0,0,0,.745-8.562,5.524,5.524,0,0,0,0-5.75,5.445,5.445,0,0,0,.229-4.095a8.324,8.324,0,0,0,.888,1.772Q1.576-1.59,3.008.52,4.182,2.219,4.927,3.332ZM5.5-3.406a2.182,2.182,0,0,1-1.618-.688A2.283,2.283,0,0,1,3.208-5.75a2.283,2.283,0,0,1,.673-1.655A2.182,2.182,0,0,1,5.5-8.094a2.182,2.182,0,0,1,1.618.688A2.283,2.283,0,0,1,7.792-5.75a2.283,2.283,0,0,1-.673,1.655A2.182,2.182,0,0,1,5.5-3.406Z" transform="translate(12 21.375)" fill="currentColor"/>
</svg>
