<svg id="Компонент_5_6" data-name="Компонент 5 – 6" xmlns="http://www.w3.org/2000/svg" viewBox="0 0 34 34">
  <rect id="Прямоугольник_5" data-name="Прямоугольник 5" width="34" height="34" fill="rgba(255,255,255,0)"/>
  <path id="Контур_19" data-name="Контур 19" d="M9.692-5.863A3.774,3.774,0,0,1,5.923-2.093,3.774,3.774,0,0,1,2.154-5.863,3.774,3.774,0,0,1,5.923-9.632,3.774,3.774,0,0,1,9.692-5.863Zm4.308,7A1.083,1.083,0,0,0,13.689.38L10.8-2.506a5.909,5.909,0,0,0,1.043-3.357,5.921,5.921,0,0,0-5.923-5.923A5.921,5.921,0,0,0,0-5.863,5.921,5.921,0,0,0,5.923.06,5.909,5.909,0,0,0,9.28-.983l2.886,2.877a1.056,1.056,0,0,0,.757.32A1.084,1.084,0,0,0,14,1.137Z" transform="translate(10 21.785)" fill="currentColor"/>
</svg>
