<?xml version="1.0" encoding="UTF-8"?><!DOCTYPE svg PUBLIC "-//W3C//DTD SVG 1.1//EN" "http://www.w3.org/Graphics/SVG/1.1/DTD/svg11.dtd"><svg xmlns="http://www.w3.org/2000/svg" xmlns:xlink="http://www.w3.org/1999/xlink"><symbol id="arrow" viewBox="0 0 13.675 12.136">
  <g id="&#x421;&#x433;&#x440;&#x443;&#x43f;&#x43f;&#x438;&#x440;&#x43e;&#x432;&#x430;&#x442;&#x44c;_10" data-name="&#x421;&#x433;&#x440;&#x443;&#x43f;&#x43f;&#x438;&#x440;&#x43e;&#x432;&#x430;&#x442;&#x44c; 10" transform="translate(-1566.5 -2073.485)">
    <path id="&#x41a;&#x43e;&#x43d;&#x442;&#x443;&#x440;_25" data-name="&#x41a;&#x43e;&#x43d;&#x442;&#x443;&#x440; 25" d="M2795.521-15584.1l4.654,4.654-4.654,4.653" transform="translate(-1221 17659)" fill="none" stroke="currentColor" stroke-linecap="round" stroke-linejoin="round" stroke-width="2"/>
    <line id="&#x41b;&#x438;&#x43d;&#x438;&#x44f;_17" data-name="&#x41b;&#x438;&#x43d;&#x438;&#x44f; 17" x1="10" transform="translate(1567.5 2079.5)" fill="none" stroke="currentColor" stroke-linecap="round" stroke-width="2"/>
  </g>
</symbol><symbol id="basket" viewBox="0 0 34 34">
  <rect id="&#x41f;&#x440;&#x44f;&#x43c;&#x43e;&#x443;&#x433;&#x43e;&#x43b;&#x44c;&#x43d;&#x438;&#x43a;_6" data-name="&#x41f;&#x440;&#x44f;&#x43c;&#x43e;&#x443;&#x433;&#x43e;&#x43b;&#x44c;&#x43d;&#x438;&#x43a; 6" width="34" height="34" fill="rgba(255,255,255,0)"/>
  <path id="&#x41a;&#x43e;&#x43d;&#x442;&#x443;&#x440;_22" data-name="&#x41a;&#x43e;&#x43d;&#x442;&#x443;&#x440; 22" d="M6.154,1.3a1.231,1.231,0,1,0-2.462,0,1.231,1.231,0,1,0,2.462,0Zm8.615,0a1.231,1.231,0,1,0-2.462,0,1.231,1.231,0,1,0,2.462,0ZM16-9.519a.631.631,0,0,0-.615-.636H3.837c-.1-.477-.106-1.273-.76-1.273H.615A.631.631,0,0,0,0-10.792a.631.631,0,0,0,.615.636H2.577l1.7,8.183A5.6,5.6,0,0,0,3.692-.61a.631.631,0,0,0,.615.636h9.846a.631.631,0,0,0,.615-.636.631.631,0,0,0-.615-.636H5.308a1.538,1.538,0,0,0,.231-.636,4.215,4.215,0,0,0-.125-.7L15.452-3.792A.636.636,0,0,0,16-4.429Z" transform="translate(9 21.429)" fill="currentColor"/>
</symbol><symbol id="burger" viewBox="0 0 42 18">
  <g id="&#x421;&#x433;&#x440;&#x443;&#x43f;&#x43f;&#x438;&#x440;&#x43e;&#x432;&#x430;&#x442;&#x44c;_282" data-name="&#x421;&#x433;&#x440;&#x443;&#x43f;&#x43f;&#x438;&#x440;&#x43e;&#x432;&#x430;&#x442;&#x44c; 282" transform="translate(1 -1)">
    <line id="&#x41b;&#x438;&#x43d;&#x438;&#x44f;_1" data-name="&#x41b;&#x438;&#x43d;&#x438;&#x44f; 1" x2="27" transform="translate(0 2)" fill="none" stroke="currentColor" stroke-linecap="round" stroke-width="2"/>
    <line id="&#x41b;&#x438;&#x43d;&#x438;&#x44f;_2" data-name="&#x41b;&#x438;&#x43d;&#x438;&#x44f; 2" x2="40" transform="translate(0 10)" fill="none" stroke="currentColor" stroke-linecap="round" stroke-width="2"/>
    <line id="&#x41b;&#x438;&#x43d;&#x438;&#x44f;_3" data-name="&#x41b;&#x438;&#x43d;&#x438;&#x44f; 3" x2="20" transform="translate(0 18)" fill="none" stroke="currentColor" stroke-linecap="round" stroke-width="2"/>
  </g>
</symbol><symbol id="compare" viewBox="0 0 34 34">
  <rect id="&#x41f;&#x440;&#x44f;&#x43c;&#x43e;&#x443;&#x433;&#x43e;&#x43b;&#x44c;&#x43d;&#x438;&#x43a;_7" data-name="&#x41f;&#x440;&#x44f;&#x43c;&#x43e;&#x443;&#x433;&#x43e;&#x43b;&#x44c;&#x43d;&#x438;&#x43a; 7" width="34" height="34" fill="rgba(255,255,255,0)"/>
  <g id="&#x421;&#x433;&#x440;&#x443;&#x43f;&#x43f;&#x438;&#x440;&#x43e;&#x432;&#x430;&#x442;&#x44c;_4" data-name="&#x421;&#x433;&#x440;&#x443;&#x43f;&#x43f;&#x438;&#x440;&#x43e;&#x432;&#x430;&#x442;&#x44c; 4" transform="translate(-1754 -50.5)">
    <line id="&#x41b;&#x438;&#x43d;&#x438;&#x44f;_14" data-name="&#x41b;&#x438;&#x43d;&#x438;&#x44f; 14" y2="14" transform="translate(1771.5 60.5)" fill="none" stroke="currentColor" stroke-linecap="round" stroke-width="2"/>
    <line id="&#x41b;&#x438;&#x43d;&#x438;&#x44f;_15" data-name="&#x41b;&#x438;&#x43d;&#x438;&#x44f; 15" y2="8" transform="translate(1766.5 66.5)" fill="none" stroke="currentColor" stroke-linecap="round" stroke-width="2"/>
    <line id="&#x41b;&#x438;&#x43d;&#x438;&#x44f;_16" data-name="&#x41b;&#x438;&#x43d;&#x438;&#x44f; 16" y2="8" transform="translate(1776.5 66.5)" fill="none" stroke="currentColor" stroke-linecap="round" stroke-width="2"/>
  </g>
</symbol><symbol id="phone" viewBox="0 0 10.975 10.975">
  <path id="&#x41a;&#x43e;&#x43d;&#x442;&#x443;&#x440;_83" data-name="&#x41a;&#x43e;&#x43d;&#x442;&#x443;&#x440; 83" d="M.415-9.963a.407.407,0,0,0-.3.172.543.543,0,0,0-.107.322A9.789,9.789,0,0,0,1.359-4.451,10,10,0,0,0,4.941-.869,9.789,9.789,0,0,0,9.96.482a.543.543,0,0,0,.322-.107.407.407,0,0,0,.172-.3l.515-2.231a.484.484,0,0,0-.043-.343.462.462,0,0,0-.257-.236l-2.4-1.03A.545.545,0,0,0,7.944-3.8a.431.431,0,0,0-.279.182L6.614-2.327A7.539,7.539,0,0,1,4.373-3.893,7.88,7.88,0,0,1,2.818-6.124L4.1-7.2a.513.513,0,0,0,.172-.268A.535.535,0,0,0,4.255-7.8l-1.03-2.4a.473.473,0,0,0-.236-.236.484.484,0,0,0-.343-.043Z" transform="translate(-0.008 10.492)" fill="currentColor"/>
</symbol><symbol id="pin" viewBox="0 0 34 34">
  <rect id="&#x41f;&#x440;&#x44f;&#x43c;&#x43e;&#x443;&#x433;&#x43e;&#x43b;&#x44c;&#x43d;&#x438;&#x43a;_7" data-name="&#x41f;&#x440;&#x44f;&#x43c;&#x43e;&#x443;&#x433;&#x43e;&#x43b;&#x44c;&#x43d;&#x438;&#x43a; 7" width="34" height="34" fill="rgba(255,255,255,0)"/>
  <path id="&#x41a;&#x43e;&#x43d;&#x442;&#x443;&#x440;_23" data-name="&#x41a;&#x43e;&#x43d;&#x442;&#x443;&#x440; 23" d="M4.927,3.332a.653.653,0,0,0,.573.293.653.653,0,0,0,.573-.293L7.992.52Q9.424-1.59,9.883-2.322a8.324,8.324,0,0,0,.888-1.772A5.445,5.445,0,0,0,11-5.75a5.524,5.524,0,0,0-.745-2.812A5.671,5.671,0,0,0,8.25-10.613a5.219,5.219,0,0,0-2.75-.762,5.219,5.219,0,0,0-2.75.762A5.671,5.671,0,0,0,.745-8.562,5.524,5.524,0,0,0,0-5.75,5.445,5.445,0,0,0,.229-4.095a8.324,8.324,0,0,0,.888,1.772Q1.576-1.59,3.008.52,4.182,2.219,4.927,3.332ZM5.5-3.406a2.182,2.182,0,0,1-1.618-.688A2.283,2.283,0,0,1,3.208-5.75a2.283,2.283,0,0,1,.673-1.655A2.182,2.182,0,0,1,5.5-8.094a2.182,2.182,0,0,1,1.618.688A2.283,2.283,0,0,1,7.792-5.75a2.283,2.283,0,0,1-.673,1.655A2.182,2.182,0,0,1,5.5-3.406Z" transform="translate(12 21.375)" fill="currentColor"/>
</symbol><symbol id="search" viewBox="0 0 34 34">
  <rect id="&#x41f;&#x440;&#x44f;&#x43c;&#x43e;&#x443;&#x433;&#x43e;&#x43b;&#x44c;&#x43d;&#x438;&#x43a;_5" data-name="&#x41f;&#x440;&#x44f;&#x43c;&#x43e;&#x443;&#x433;&#x43e;&#x43b;&#x44c;&#x43d;&#x438;&#x43a; 5" width="34" height="34" fill="rgba(255,255,255,0)"/>
  <path id="&#x41a;&#x43e;&#x43d;&#x442;&#x443;&#x440;_19" data-name="&#x41a;&#x43e;&#x43d;&#x442;&#x443;&#x440; 19" d="M9.692-5.863A3.774,3.774,0,0,1,5.923-2.093,3.774,3.774,0,0,1,2.154-5.863,3.774,3.774,0,0,1,5.923-9.632,3.774,3.774,0,0,1,9.692-5.863Zm4.308,7A1.083,1.083,0,0,0,13.689.38L10.8-2.506a5.909,5.909,0,0,0,1.043-3.357,5.921,5.921,0,0,0-5.923-5.923A5.921,5.921,0,0,0,0-5.863,5.921,5.921,0,0,0,5.923.06,5.909,5.909,0,0,0,9.28-.983l2.886,2.877a1.056,1.056,0,0,0,.757.32A1.084,1.084,0,0,0,14,1.137Z" transform="translate(10 21.785)" fill="currentColor"/>
</symbol><symbol id="swipe" viewBox="0 0 34.242 41.024">
  <circle id="&#x42d;&#x43b;&#x43b;&#x438;&#x43f;&#x441;_25" data-name="&#x42d;&#x43b;&#x43b;&#x438;&#x43f;&#x441; 25" cx="7.5" cy="7.5" r="7.5" fill="currentColor" opacity="0.2"/>
  <g id="&#x421;&#x433;&#x440;&#x443;&#x43f;&#x43f;&#x438;&#x440;&#x43e;&#x432;&#x430;&#x442;&#x44c;_231" data-name="&#x421;&#x433;&#x440;&#x443;&#x43f;&#x43f;&#x438;&#x440;&#x43e;&#x432;&#x430;&#x442;&#x44c; 231" transform="translate(16607.953 12648.154)">
    <path id="&#x41a;&#x43e;&#x43d;&#x442;&#x443;&#x440;_331" data-name="&#x41a;&#x43e;&#x43d;&#x442;&#x443;&#x440; 331" d="M28.959,22.934a.993.993,0,0,0-.184-.278A25.468,25.468,0,0,1,26.292,18.3a47.532,47.532,0,0,0-.73-6.157v-.089A14.176,14.176,0,0,0,24.425,8a3.545,3.545,0,0,0-2.239-1.827,4.146,4.146,0,0,0-2.557.258,3.6,3.6,0,0,0-3.754.184,3.148,3.148,0,0,0-3.058-.283,3.888,3.888,0,0,0-1.857,1.49L6.77,1.639A3.3,3.3,0,0,0,3.845,0a4.032,4.032,0,0,0-3.4,2.056A3.744,3.744,0,0,0,.608,5.879c2.2,3.664,5.114,8.758,6.4,11.057a6,6,0,0,0-2.557-.5A4.044,4.044,0,0,0,3.5,24.245a22.258,22.258,0,0,1,3.729,2.2A31.278,31.278,0,0,0,10.1,28.252a7.5,7.5,0,0,0,1.907.914c.119.124,3.768,2.011,4.811,3.063a3.242,3.242,0,0,0,2.393.948,8.388,8.388,0,0,0,4.469-1.693C26.5,29.583,30.105,25.551,28.959,22.934ZM11.084,26.519a28.835,28.835,0,0,1-2.721-1.693,24.141,24.141,0,0,0-4.056-2.383A2.068,2.068,0,0,1,4.6,18.436h.139a6.226,6.226,0,0,1,2.269.655c.859.377,1.663.735,2.309.129a1.73,1.73,0,0,0,.174-1.907.993.993,0,0,0-.07-.149c-.04-.074-4.21-7.448-7.13-12.3a1.763,1.763,0,0,1-.124-1.837A2.07,2.07,0,0,1,3.88,1.987a1.336,1.336,0,0,1,1.2.7l.03.045,6.251,9.23a.993.993,0,0,0,1.763-.879l-.6-1.728c-.055-.462.467-.953,1.018-1.167.228-.089.993-.333,1.341.238a.993.993,0,0,0,1.49.253s1.579-1.276,2.4-.392a.993.993,0,0,0,1.261.164A2.512,2.512,0,0,1,21.719,8.1a1.614,1.614,0,0,1,.993.869,13.276,13.276,0,0,1,.914,3.416v.094c1.39,8.2.556,9.121-.8,10.615-.065.07-6.673,6.822-11.633,3.476Zm11.479,3.322c-1.926,1.311-3.624,1.7-4.325.993a15.223,15.223,0,0,0-1.917-1.584c4.2-.993,7.706-4.558,7.944-4.8a7.353,7.353,0,0,0,1.579-2.4,12.661,12.661,0,0,0,1.336,1.777c.253,1.147-1.763,4.076-4.608,6.013Z" transform="translate(-16602.729 -12643.178) rotate(6)" fill="currentColor"/>
  </g>
</symbol></svg>