<svg xmlns="http://www.w3.org/2000/svg" xmlns:xlink="http://www.w3.org/1999/xlink" viewBox="0 0 108.18 43.521">
  <defs>
    <linearGradient id="linear-gradient" x1="0.496" y1="-0.205" x2="0.5" y2="1.005" gradientUnits="objectBoundingBox">
      <stop offset="0" stop-color="#f95714"/>
      <stop offset="1" stop-color="#fd1e2e"/>
    </linearGradient>
    <linearGradient id="linear-gradient-2" x1="0.496" y1="-0.208" x2="0.501" y2="0.998" xlink:href="#linear-gradient"/>
  </defs>
  <g id="Acoustic_Control_Logo_Artboard_3" data-name="Acoustic Control Logo_Artboard 3" transform="translate(-648.62 -386.26)">
    <g id="Сгруппировать_190" data-name="Сгруппировать 190" transform="translate(648.62 386.26)">
      <g id="Сгруппировать_187" data-name="Сгруппировать 187" transform="translate(24.367)">
        <path id="Контур_269" data-name="Контур 269" d="M811.5,386.52H796.976V390.8h2.249l-5.316,17.914H791.09V413h9.884v-4.282h-2.6l.964-3.248h13.311l.927,3.248h-2.6V413h9.921v-4.282h-2.819l-6.566-22.2Zm-10.885,14.668,3.1-10.384h4.568l3.069,10.384Z" transform="translate(-791.09 -386.474)" fill="url(#linear-gradient)"/>
        <path id="Контур_270" data-name="Контур 270" d="M1004.742,404.84a8.676,8.676,0,0,1-3.453,2.787,11.856,11.856,0,0,1-5.031,1,11.724,11.724,0,0,1-4.014-.666,9.79,9.79,0,0,1-3.19-1.858,8.516,8.516,0,0,1-2.121-2.875,9.17,9.17,0,0,1,0-7.362,8.515,8.515,0,0,1,2.121-2.875,9.792,9.792,0,0,1,3.19-1.858,11.725,11.725,0,0,1,4.014-.666c.889,0,1.658.03,2.314.088a11.974,11.974,0,0,1,1.77.28,7.475,7.475,0,0,1,1.42.491,13.081,13.081,0,0,1,1.262.684l.175,1.823h3.856V389.31q-.7-.455-1.6-1a11.826,11.826,0,0,0-2.173-1,18.373,18.373,0,0,0-3-.754,23.953,23.953,0,0,0-4.031-.3,16.3,16.3,0,0,0-5.416.911,14.328,14.328,0,0,0-4.61,2.612,12.574,12.574,0,0,0-3.19,4.172,12.722,12.722,0,0,0-1.192,5.591,12.3,12.3,0,0,0,1.192,5.5,13.01,13.01,0,0,0,3.19,4.189,14.226,14.226,0,0,0,4.61,2.664,16.486,16.486,0,0,0,11.989-.421,13.408,13.408,0,0,0,5.031-3.8l-3.12-2.84Z" transform="translate(-948.413 -386.26)" fill="url(#linear-gradient-2)"/>
      </g>
      <g id="Сгруппировать_188" data-name="Сгруппировать 188" transform="translate(0 32.807)">
        <path id="Контур_271" data-name="Контур 271" d="M650.519,578.37h3.3l1.556,10.5h-1.29l-.407-2.734h-2.187l-.407,2.734h-1.29l1.29-8.806.533-.323v-.1h-1.094Zm2.188,1.276h-.266l-.771,5.216h1.823Z" transform="translate(-649.79 -578.23)" fill="#fff"/>
        <path id="Контур_272" data-name="Контур 272" d="M695,579.913l-.8-.827h-.911l-.785.827v6.394l.8.9h.883l.813-.9v-1.164l1.276-.014v1.655l-1.529,1.7h-2.005l-1.515-1.7v-7.376l1.529-1.6h1.991l1.529,1.6v1.585H695Z" transform="translate(-683.966 -577.768)" fill="#fff"/>
        <path id="Контур_273" data-name="Контур 273" d="M738.474,586.573l-1.585,1.683H734.87l-1.57-1.683v-7.418l1.585-1.585h2.005l1.585,1.585Zm-1.274-.491v-6.408l-.841-.841h-.954l-.841.841v6.408l.855.911h.925Z" transform="translate(-718.662 -577.57)" fill="#fff"/>
        <path id="Контур_274" data-name="Контур 274" d="M775.253,578.29V586.7l.8.883h.841l.8-.883V578.29h1.276v8.89l-1.5,1.683h-1.977l-1.514-1.683v-7.306l.533-.323v-.1h-1.29V578.29Z" transform="translate(-751.753 -578.164)" fill="#fff"/>
        <path id="Контур_275" data-name="Контур 275" d="M820.242,586.482l.827.869h.926l.827-.869v-1.669l-3.772-2.636v-2.636l1.5-1.57h1.963l1.5,1.57v1.613h-1.262v-1.094l-.785-.827h-.883l-.771.827v1.458l3.758,2.636v2.833l-1.542,1.627h-2.005l-1.542-1.627v-1.921h1.262Z" transform="translate(-789.552 -577.9)" fill="#fff"/>
        <path id="Контур_276" data-name="Контур 276" d="M859.53,579.44h-1.136l-.056,1.108H857.3V578.29h5.763v2.258h-1.052l-.042-1.108h-1.164v9.367H859.53Z" transform="translate(-821.209 -578.164)" fill="#fff"/>
        <path id="Контур_277" data-name="Контур 277" d="M898.66,588.807v-1.164H899.8v-7.768l.533-.323v-.1h-1.557V578.29h3.281v1.164h-.982v8.189h1.136v1.164Z" transform="translate(-855.368 -578.164)" fill="#fff"/>
        <path id="Контур_278" data-name="Контур 278" d="M933.152,579.913l-.8-.827h-.912l-.785.827v6.394l.8.9h.883l.813-.9v-1.164l1.276-.014v1.655l-1.529,1.7h-2.005l-1.514-1.7v-7.376l1.529-1.6H932.9l1.529,1.6v1.585h-1.276Z" transform="translate(-880.75 -577.768)" fill="#fff"/>
        <path id="Контур_279" data-name="Контур 279" d="M992.512,579.913l-.8-.827H990.8l-.785.827v6.394l.8.9h.883l.813-.9v-1.164l1.276-.014v1.655l-1.529,1.7h-2.005l-1.515-1.7v-7.376l1.529-1.6h1.991l1.529,1.6v1.585h-1.276Z" transform="translate(-929.785 -577.768)" fill="#fff"/>
        <path id="Контур_280" data-name="Контур 280" d="M1035.994,586.573l-1.584,1.683h-2.019l-1.57-1.683v-7.418l1.584-1.585h2.005l1.584,1.585Zm-1.276-.491v-6.408l-.841-.841h-.953l-.841.841v6.408l.855.911h.925Z" transform="translate(-964.547 -577.57)" fill="#fff"/>
        <path id="Контур_281" data-name="Контур 281" d="M1070.74,578.53h2.482l1.192,3.758,1.15,4.389h.042l-.28-4.459V578.53h1.248V589h-1.36l-1.641-5.16-.953-3.436h-.042l.168,3.548V589H1071.5v-8.792l.533-.323v-.1h-1.29Z" transform="translate(-997.527 -578.362)" fill="#fff"/>
        <path id="Контур_282" data-name="Контур 282" d="M1116.25,579.44h-1.136l-.056,1.108h-1.038V578.29h5.763v2.258h-1.052l-.042-1.108h-1.164v9.367h-1.276Z" transform="translate(-1033.279 -578.164)" fill="#fff"/>
        <path id="Контур_283" data-name="Контур 283" d="M1157.1,588.873h-1.276v-8.792l.533-.323v-.1h-1.3v-1.29h3.856l1.612,1.627v3.632l-1.136,1.22,1.865,4.025h-1.4l-1.641-3.534H1157.1Zm0-4.81h1.276l.87-.939v-2.608l-.855-.855h-1.29Z" transform="translate(-1067.287 -578.23)" fill="#fff"/>
        <path id="Контур_284" data-name="Контур 284" d="M1205.264,586.573l-1.585,1.683h-2.019l-1.571-1.683v-7.418l1.584-1.585h2.005l1.585,1.585Zm-1.276-.491v-6.408l-.842-.841h-.953l-.842.841v6.408l.855.911h.925Z" transform="translate(-1104.432 -577.57)" fill="#fff"/>
        <path id="Контур_285" data-name="Контур 285" d="M1241.963,578.37v9.283h2.229v-1.122h1.276v2.342h-4.782v-8.806l.533-.323v-.1h-1.29V578.37Z" transform="translate(-1137.289 -578.23)" fill="#fff"/>
      </g>
    </g>
  </g>
</svg>
