<svg xmlns="http://www.w3.org/2000/svg" width="62.62" height="66.808" viewBox="0 0 62.62 66.808">
  <g id="Сгруппировать_134" data-name="Сгруппировать 134" transform="translate(-1147.599 -1341.592)">
    <path id="Контур_146" data-name="Контур 146" d="M43.178,67.3a.908.908,0,0,1-.653-.278.9.9,0,0,1-.217-.877l1.613-5.55a.9.9,0,0,1,.653-.623.91.91,0,0,1,.863.248l1.41,1.47,10.343-8.183L46.26,45.443A.9.9,0,0,1,47.333,44l11.88,8.76a.9.9,0,0,1,.023,1.433l-11.13,8.805,1.335,1.4a.9.9,0,0,1-.435,1.5l-5.61,1.38a1.018,1.018,0,0,1-.218.022Zm2.04-4.7-.743,2.55,2.58-.638-1.838-1.92Z" transform="translate(1231.817 1299.729) rotate(90)" fill="currentColor" stroke="currentColor" stroke-width="0.8"/>
    <path id="Контур_147" data-name="Контур 147" d="M43.178,67.3a.908.908,0,0,1-.653-.278.9.9,0,0,1-.217-.877l1.613-5.55a.9.9,0,0,1,.653-.623.91.91,0,0,1,.863.248l1.41,1.47,10.343-8.183L46.26,45.443A.9.9,0,0,1,47.333,44l11.88,8.76a.9.9,0,0,1,.023,1.433l-11.13,8.805,1.335,1.4a.9.9,0,0,1-.435,1.5l-5.61,1.38a1.018,1.018,0,0,1-.218.022Zm2.04-4.7-.743,2.55,2.58-.638-1.838-1.92Z" transform="translate(1215.297 1308.383) rotate(90)" fill="currentColor" stroke="currentColor" stroke-width="0.8"/>
    <path id="Контур_148" data-name="Контур 148" d="M43.178,67.3a.908.908,0,0,1-.653-.278.9.9,0,0,1-.217-.877l1.613-5.55a.9.9,0,0,1,.653-.623.91.91,0,0,1,.863.248l1.41,1.47,10.343-8.183L46.26,45.443A.9.9,0,0,1,47.333,44l11.88,8.76a.9.9,0,0,1,.023,1.433l-11.13,8.805,1.335,1.4a.9.9,0,0,1-.435,1.5l-5.61,1.38a1.018,1.018,0,0,1-.218.022Zm2.04-4.7-.743,2.55,2.58-.638-1.838-1.92Z" transform="translate(1253.635 1308.383) rotate(90)" fill="currentColor" stroke="currentColor" stroke-width="0.8"/>
    <path id="Контур_145" data-name="Контур 145" d="M9.469,55.026q29.68,14.248,29.94,14.282c.3,0,.05.066,29.94-14.282a.833.833,0,0,0,0-1.5l-11.6-5.573,11.6-5.568a.829.829,0,0,0,0-1.493L57.744,35.32l11.606-5.573a.833.833,0,0,0,0-1.5L39.769,14.05c-.558-.271-.133-.282-30.3,14.2a.833.833,0,0,0,0,1.5L21.075,35.32,9.469,40.894a.827.827,0,0,0,0,1.493l11.6,5.568-11.6,5.573a.833.833,0,0,0,0,1.5ZM11.747,29,39.409,15.714,67.071,29,39.409,42.282,11.747,29Zm0,12.645,11.246-5.4,16.062,7.713a.82.82,0,0,0,.719,0l16.056-7.713,11.246,5.407L39.409,54.927,11.742,41.646Zm11.241,7.238L39.05,56.585a.82.82,0,0,0,.719,0l16.062-7.708,11.241,5.4L39.4,67.555,11.742,54.28l11.241-5.4Z" transform="translate(1139 1338.692)" fill="currentColor" stroke="currentColor" stroke-width="0.8"/>
  </g>
</svg>
