<svg xmlns="http://www.w3.org/2000/svg" width="53.01" height="50.084" viewBox="0 0 53.01 50.084">
  <g id="Сгруппировать_136" data-name="Сгруппировать 136" transform="translate(-2.683 -3.144)">
    <path id="Контур_151" data-name="Контур 151" d="M69.905,4.032a.409.409,0,0,0-.534.054l-11.3,7.621V4.459a.469.469,0,0,0-.319-.48.483.483,0,0,0-.585.107L48.055,13.2V4.459a.521.521,0,0,0-.427-.534.535.535,0,0,0-.585.266L39.952,17.3a.4.4,0,0,0-.054.266V38.886a.473.473,0,0,0,.054.266l7.034,13.057a.557.557,0,0,0,.48.266h.107A.575.575,0,0,0,48,51.941V43.2l9.114,9.114a.482.482,0,0,0,.373.161.314.314,0,0,0,.212-.054.513.513,0,0,0,.319-.48V44.7l11.3,7.621a.753.753,0,0,0,.319.107.473.473,0,0,0,.266-.054.557.557,0,0,0,.266-.48V4.459a.471.471,0,0,0-.264-.427ZM46.986,49.814,40.964,38.728V17.677L46.986,6.59Zm10.021.8-8.953-8.955V14.746l8.953-8.953Zm12.1.319L58.073,43.419V12.986L69.159,5.525V50.933Z" transform="translate(-15.226)" fill="currentColor" stroke="currentColor" stroke-width="1.5"/>
    <path id="Контур_152" data-name="Контур 152" d="M14.519,4.288a.612.612,0,0,0-.641-.268.575.575,0,0,0-.427.534v8.741L4.34,4.127a.739.739,0,0,0-.587-.107.618.618,0,0,0-.319.48V51.932a.468.468,0,0,0,.319.48c.107.054.161.107.214.107a.482.482,0,0,0,.373-.161l9.114-9.114v8.741a.521.521,0,0,0,.427.534h.107a.565.565,0,0,0,.48-.266L21.5,39.2a.4.4,0,0,0,.054-.266V17.614a.473.473,0,0,0-.054-.266ZM4.5,50.655V5.834l9.006,8.953V41.7ZM20.542,38.769,14.573,49.855V6.632l5.968,11.086Z" transform="translate(0 -0.041)" fill="currentColor" stroke="currentColor" stroke-width="1.5"/>
  </g>
</svg>
