<svg xmlns="http://www.w3.org/2000/svg" width="52.768" height="66.8" viewBox="0 0 52.768 66.8">
  <path id="Контур_144" data-name="Контур 144" d="M43.178,67.3a.908.908,0,0,1-.653-.278.9.9,0,0,1-.217-.877l1.613-5.55a.9.9,0,0,1,.653-.623.91.91,0,0,1,.863.248l1.41,1.47,10.343-8.183L46.26,45.443A.9.9,0,0,1,47.333,44l11.88,8.76a.9.9,0,0,1,.023,1.433l-11.13,8.805,1.335,1.4a.9.9,0,0,1-.435,1.5l-5.61,1.38a1.018,1.018,0,0,1-.218.022Zm2.04-4.7-.743,2.55,2.58-.638-1.838-1.92ZM71.1,66.113H65.565a.9.9,0,0,1-.9-.9c0-.525-.3-.795-1.028-1.335a3.03,3.03,0,0,1,0-5.49c.735-.54,1.028-.81,1.028-1.335s-.3-.795-1.028-1.335a3.03,3.03,0,0,1,0-5.49c.735-.54,1.028-.81,1.028-1.335s-.3-.8-1.028-1.335a3.03,3.03,0,0,1,0-5.49c.735-.54,1.028-.81,1.028-1.335s-.3-.8-1.028-1.335a3.352,3.352,0,0,1-1.748-2.745,3.352,3.352,0,0,1,1.748-2.745c.735-.54,1.028-.81,1.028-1.335s-.3-.8-1.028-1.335a3.352,3.352,0,0,1-1.748-2.745,3.352,3.352,0,0,1,1.748-2.745c.735-.54,1.028-.81,1.028-1.335s-.3-.8-1.028-1.335a3.352,3.352,0,0,1-1.748-2.745,3.352,3.352,0,0,1,1.748-2.745c.66-.488.967-.75,1.02-1.185a1.232,1.232,0,0,1-.015-.173.9.9,0,0,1,.9-.9.949.949,0,0,1,.21.023H71.1a.9.9,0,0,1,.9.9v48.96a.9.9,0,0,1-.9.9Zm-4.778-1.8H70.2V17.2H66.323A4,4,0,0,1,64.7,19.08c-.72.525-1.012.8-1.012,1.29s.292.765,1.012,1.29a3.4,3.4,0,0,1,1.77,2.783A3.392,3.392,0,0,1,64.7,27.225c-.72.525-1.013.8-1.013,1.29s.292.765,1.013,1.29a3.4,3.4,0,0,1,1.77,2.783A3.392,3.392,0,0,1,64.71,35.37c-.72.525-1.012.8-1.012,1.29s.292.765,1.012,1.29a3.075,3.075,0,0,1,.007,5.565c-.72.525-1.013.8-1.013,1.3s.292.765,1.013,1.29a3.075,3.075,0,0,1,.007,5.565c-.72.525-1.012.8-1.012,1.29s.292.765,1.012,1.29a3.072,3.072,0,0,1,0,5.565c-.72.525-1.012.8-1.012,1.29s.292.765,1.012,1.29a4,4,0,0,1,1.628,1.882Zm-23.145-9.84a.909.909,0,0,1-.653-.278.9.9,0,0,1-.217-.878l1.613-5.55a.9.9,0,0,1,.653-.623.91.91,0,0,1,.863.248l1.41,1.47.975-.772a.9.9,0,0,1,1.118,1.417l-.84.668,1.335,1.4A.9.9,0,0,1,49,53.07l-5.61,1.38a1.018,1.018,0,0,1-.218.022Zm2.04-4.7-.743,2.558,2.58-.638Zm-23.7,1.11a1.722,1.722,0,0,1-.983-.3l-7.253-4.853H8.078A2.082,2.082,0,0,1,6,43.65V37.68A2.082,2.082,0,0,1,8.078,35.6h5.205l7.253-4.853a1.774,1.774,0,0,1,2.76,1.478V49.11a1.788,1.788,0,0,1-.938,1.568,1.737,1.737,0,0,1-.833.21ZM14.34,44.265,21.5,49.058V32.273L14.34,37.065v7.208Zm-6.54-3.6V43.65a.277.277,0,0,0,.278.278H12.54V37.41H8.078a.277.277,0,0,0-.278.277v2.985Zm25.433,8.67a.863.863,0,0,1-.525-.173l-4.83-3.473a.9.9,0,1,1,1.058-1.455l4.83,3.473a.9.9,0,0,1,.2,1.26.883.883,0,0,1-.728.375Zm19.275-2.9a.9.9,0,0,1-.7-.345.906.906,0,0,1,.15-1.268L57.2,40.68,42.48,29.828a.9.9,0,0,1,1.073-1.448l15.66,11.55a.9.9,0,0,1,.022,1.433L53.07,46.245a.91.91,0,0,1-.555.195Zm-9.33-4.793a.909.909,0,0,1-.653-.278.9.9,0,0,1-.217-.877l1.613-5.55a.9.9,0,0,1,.653-.623.91.91,0,0,1,.863.248l1.41,1.47.975-.773a.9.9,0,0,1,1.118,1.418l-.84.66,1.335,1.4a.9.9,0,0,1-.435,1.5l-5.61,1.38a1.018,1.018,0,0,1-.217.022Zm2.04-4.7L44.475,39.5l2.58-.638-1.838-1.92ZM33.233,41.558H28.4a.9.9,0,0,1,0-1.8h4.83a.9.9,0,1,1,0,1.8Zm-4.83-4.29a.883.883,0,0,1-.728-.375.9.9,0,0,1,.2-1.26l4.83-3.473a.9.9,0,0,1,1.058,1.463L28.935,37.1a.915.915,0,0,1-.525.172Zm24.1-3.653a.9.9,0,0,1-.705-.345A.906.906,0,0,1,51.945,32l5.243-4.148L42.473,17a.9.9,0,1,1,1.073-1.448l15.66,11.55a.9.9,0,0,1,.022,1.433L53.063,33.42a.91.91,0,0,1-.555.195Z" transform="translate(67.698 -5.6) rotate(90)" fill="currentColor" stroke="currentColor" stroke-width="0.8"/>
</svg>
