<svg xmlns="http://www.w3.org/2000/svg" width="62.92" height="62.718" viewBox="0 0 62.92 62.718">
  <path id="Контур_143" data-name="Контур 143" d="M50.936,5.936,65.478,20.477a3.183,3.183,0,0,1-.3,4.769L48.169,38.475a3.175,3.175,0,0,1-4.209-.264l0,0-.626-.626L39.869,41.05a1.937,1.937,0,0,1-2.732,0l-.834-.834-5.486,3.95H59.69a.719.719,0,0,1,.709.589L66.378,65.5a.718.718,0,0,1-.688.914l0,0H5.716a.719.719,0,0,1-.669-.986l5.976-20.742a.717.717,0,0,1,.688-.52v0h12.96l6.523-9.058c-.7-.7-1.4-1.2-1.4-2.2a1.928,1.928,0,0,1,.565-1.365l3.463-3.463a3.828,3.828,0,0,1-1.557-2.684,3.185,3.185,0,0,1,.666-2.151L46.167,6.234a3.181,3.181,0,0,1,4.769-.3ZM21.348,50.9a.717.717,0,0,1-.693-1.152l2.988-4.148H12.253L6.671,64.977H64.742L59.161,45.605H28.82L24.1,49c10.966-1.479,10.657,2.157,8.018,3.153-1.8.68-9.988,3.753-8.868,5.686.552.952,6.251.578,12.833.147a117.951,117.951,0,0,1,15.671-.368.719.719,0,0,1-.112,1.434,117.326,117.326,0,0,0-15.469.368c-7.056.461-13.168.861-14.165-.861-2.346-4.054,8.954-7.224,10.079-7.973-1.277-.749-5.411-.688-10.742.317Zm32.923,8.354c1.136.267,2,.874,2.343.037.384-.949-1.2-1.247-2.015-1.439a.72.72,0,0,0-.328,1.4ZM28.124,44.342l7.157-5.153-3.052-3.052-7.859,10.9Zm15.319-14.5-4.636-4.636a.965.965,0,0,1-.08-1.29l9.1-11.694a.719.719,0,0,0-1.136-.882l-9.1,11.692a2.414,2.414,0,0,0,.2,3.191l4.636,4.636a.72.72,0,0,0,1.021-1.016ZM31.381,33.253l6.779,6.779a.5.5,0,0,0,.7,0l3.463-3.463L34.844,29.1,31.382,32.56a.494.494,0,0,0,0,.693ZM64.462,21.5,49.919,6.954a1.734,1.734,0,0,0-2.615.163l-13.23,17.01a1.732,1.732,0,0,0,.144,2.308L44.98,37.2l0,0a1.733,1.733,0,0,0,2.311.144L64.3,24.113a1.739,1.739,0,0,0,.163-2.618Z" transform="translate(-4.343 -4.349)" fill="currentColor" stroke="currentColor" stroke-width="1.3" fill-rule="evenodd"/>
</svg>
