<svg xmlns="http://www.w3.org/2000/svg" width="66.596" height="67" viewBox="0 0 66.596 67">
  <g id="Сгруппировать_144" data-name="Сгруппировать 144" transform="translate(0.5 0.5)">
    <path id="Контур_164" data-name="Контур 164" d="M143.469,239.124h22.794a4.462,4.462,0,0,0,3.469-1.3,4.216,4.216,0,0,0,.985-2.969V213.406a6.992,6.992,0,0,0-4.216-6.6,11.951,11.951,0,0,0-4.069-1.113c-.26-.035-3.17-.486-3.17-3.018v-3.578a.675.675,0,0,0-.675-.675h-7.5a.675.675,0,0,0-.675.675v3.745c0,2.724-2.941,2.844-3.067,2.848h-.019a11.9,11.9,0,0,0-4.1,1.115,6.994,6.994,0,0,0-4.216,6.6v21.441a4.2,4.2,0,0,0,.985,2.969A4.446,4.446,0,0,0,143.469,239.124Zm14.442-39.354v2.9c0,3.04,2.863,4.184,4.376,4.36h.039c.287.018,7.041.5,7.041,6.369v21.46a.559.559,0,0,0,0,.067,2.892,2.892,0,0,1-.648,1.984,3.207,3.207,0,0,1-2.46.852h-22.79A3.186,3.186,0,0,1,141,236.9a2.881,2.881,0,0,1-.64-1.975.559.559,0,0,0,0-.067V213.4a5.646,5.646,0,0,1,3.459-5.388,10.64,10.64,0,0,1,3.574-.981c1.517-.05,4.364-.989,4.364-4.2V199.77Zm4.454,6.593Z" transform="translate(-122.271 -173.124)" fill="currentColor" stroke="currentColor" stroke-width="1"/>
    <path id="Контур_165" data-name="Контур 165" d="M219.675,129.828h8.638a.675.675,0,0,0,.675-.675v-6.479a.675.675,0,0,0-.675-.675h-8.638a.675.675,0,0,0-.675.675v6.479A.675.675,0,0,0,219.675,129.828Zm7.963-1.35H220.35V123.35h7.288Z" transform="translate(-191.331 -107.018)" fill="currentColor" stroke="currentColor" stroke-width="1"/>
    <path id="Контур_166" data-name="Контур 166" d="M236.175,175.834a.675.675,0,0,0,.675-.675v-3.735a.675.675,0,1,0-1.35,0v3.735A.675.675,0,0,0,236.175,175.834Z" transform="translate(-201.42 -149.189)" fill="currentColor" stroke="currentColor" stroke-width="1"/>
    <path id="Контур_167" data-name="Контур 167" d="M268.175,175.834a.675.675,0,0,0,.675-.675v-3.735a.675.675,0,1,0-1.35,0v3.735A.675.675,0,0,0,268.175,175.834Z" transform="translate(-237.739 -149.189)" fill="currentColor" stroke="currentColor" stroke-width="1"/>
    <path id="Контур_168" data-name="Контур 168" d="M236.175,97.834a.675.675,0,0,0,.675-.675V93.425a.675.675,0,1,0-1.35,0v3.735A.675.675,0,0,0,236.175,97.834Z" transform="translate(-201.42 -81.716)" fill="currentColor" stroke="currentColor" stroke-width="1"/>
    <path id="Контур_169" data-name="Контур 169" d="M268.175,97.834a.675.675,0,0,0,.675-.675V93.425a.675.675,0,0,0-1.35,0v3.735A.675.675,0,0,0,268.175,97.834Z" transform="translate(-237.739 -81.716)" fill="currentColor" stroke="currentColor" stroke-width="1"/>
    <path id="Контур_170" data-name="Контур 170" d="M210.914,50.828h10.8a3.914,3.914,0,1,0,0-7.828h-10.8a3.914,3.914,0,1,0,0,7.828Zm10.8-6.479a2.564,2.564,0,1,1,0,5.129h-10.8a2.564,2.564,0,1,1,0-5.129Z" transform="translate(-186.35 -38.681)" fill="currentColor" stroke="currentColor" stroke-width="1"/>
    <path id="Контур_171" data-name="Контур 171" d="M242.47,55.84h5.608a2.756,2.756,0,0,0,2.108-.81,2.933,2.933,0,0,0,.726-2.039V46.312c.829-.321,2.7-1.033,4.1-1.431a2.75,2.75,0,0,0,2.245-2.7,2.61,2.61,0,0,0-.822-2.054,2.825,2.825,0,0,0-2.048-.618h-2.124c-1.169,0-1.331-1.406-1.35-1.644V35.324a1.372,1.372,0,0,1,1.485-1.35h8.619a2.636,2.636,0,0,0,1.841-.644,2.507,2.507,0,0,0,.742-1.921.39.39,0,0,0,0-.081.9.9,0,0,1,.251-.622,3.047,3.047,0,0,1,2.317-.647.675.675,0,1,0,0-1.35,4.279,4.279,0,0,0-3.351,1.128,2.226,2.226,0,0,0-.567,1.6,1.2,1.2,0,0,1-.313.9,1.34,1.34,0,0,1-.853.283H252.4a2.7,2.7,0,0,0-2.834,2.7V37.89a.349.349,0,0,0,0,.039c.059,1.014.7,2.93,2.7,2.93h2.16a.581.581,0,0,0,.084,0,1.525,1.525,0,0,1,1.041.29,1.35,1.35,0,0,1,.36,1.058.306.306,0,0,0,0,.061c0,.085.012.945-1.267,1.315-1.9.54-4.543,1.6-4.655,1.643a.675.675,0,0,0-.421.626v7.2a1.605,1.605,0,0,1-.367,1.064,1.491,1.491,0,0,1-1.119.379H242.5a1.623,1.623,0,0,1-1.064-.367A1.491,1.491,0,0,1,241.058,53c0-2.17,2.041-15.638,2.147-16.331a5.146,5.146,0,0,0-.588-3.942,3.077,3.077,0,0,0-2.1-1.136V26.416h6.345a2.571,2.571,0,0,0,2.7-2.564v-2a1.563,1.563,0,0,1,1.62-1.51h18.379a4.016,4.016,0,0,1,2.552.856,2.25,2.25,0,0,1,.641,1.709.675.675,0,0,0,1.35,0,3.58,3.58,0,0,0-1.057-2.685,5.311,5.311,0,0,0-3.519-1.23H251.182a2.9,2.9,0,0,0-2.969,2.793v2.066a1.225,1.225,0,0,1-1.35,1.215h-7.018a.675.675,0,0,0-.675.675V32.22a.675.675,0,0,0,.675.675,2.023,2.023,0,0,1,1.707.66,3.815,3.815,0,0,1,.337,2.822.442.442,0,0,0-.012.061c-.089.58-2.168,14.249-2.168,16.567a2.756,2.756,0,0,0,.81,2.108A2.916,2.916,0,0,0,242.47,55.84Z" transform="translate(-239.17 -17.913)" fill="currentColor" stroke="currentColor" stroke-width="1"/>
    <path id="Контур_172" data-name="Контур 172" d="M421.675,39.35h2.834a.675.675,0,1,0,0-1.35h-2.834a.675.675,0,1,0,0,1.35Z" transform="translate(-414.792 -34.356)" fill="currentColor" stroke="currentColor" stroke-width="1"/>
    <path id="Контур_173" data-name="Контур 173" d="M442.675,32.049a.675.675,0,0,0,.675-.675v-2.7a.675.675,0,0,0-1.35,0v2.7A.675.675,0,0,0,442.675,32.049Z" transform="translate(-435.792 -25.706)" fill="currentColor" stroke="currentColor" stroke-width="1"/>
    <path id="Контур_174" data-name="Контур 174" d="M318.913,133.482a.657.657,0,0,0,.287-.065l2.294-1.08a.675.675,0,0,0,.29-.96c-2.558-4.219-2.07-10.6-2.065-10.663a.677.677,0,0,0-1.35-.111c-.022.27-.48,6.284,1.89,10.82l-1.108.521a22.011,22.011,0,0,1-2.8-11.286.675.675,0,0,0-1.35,0c0,7.963,3.239,12.369,3.374,12.552A.675.675,0,0,0,318.913,133.482Z" transform="translate(-297.183 -105.274)" fill="currentColor" stroke="currentColor" stroke-width="1"/>
    <path id="Контур_175" data-name="Контур 175" d="M239.675,50.784a.675.675,0,0,0,.675-.675V43.675a.675.675,0,0,0-1.35,0v6.434A.675.675,0,0,0,239.675,50.784Z" transform="translate(-205.393 -38.681)" fill="currentColor" stroke="currentColor" stroke-width="1"/>
    <path id="Контур_176" data-name="Контур 176" d="M187.675,69.35h2.564a.675.675,0,1,0,0-1.35h-2.564a.675.675,0,1,0,0,1.35Z" transform="translate(-148.939 -60.307)" fill="currentColor" stroke="currentColor" stroke-width="1"/>
    <path id="Контур_177" data-name="Контур 177" d="M12.675,28.276A5.4,5.4,0,0,0,17.742,24.7a5.38,5.38,0,0,0,0-10.133A5.4,5.4,0,0,0,12.675,11a.675.675,0,1,0,0,1.35,4.049,4.049,0,0,1,3.88,2.941.675.675,0,0,0,.467.467,4.03,4.03,0,0,1,0,7.761.675.675,0,0,0-.467.467,4.049,4.049,0,0,1-3.88,2.941.675.675,0,1,0,0,1.35Z" transform="translate(44.282 -11)" fill="currentColor" stroke="currentColor" stroke-width="1"/>
    <path id="Контур_178" data-name="Контур 178" d="M443.675,157.35h3.509a.675.675,0,1,0,0-1.35h-3.509a.675.675,0,0,0,0,1.35Z" transform="translate(-440.436 -136.429)" fill="currentColor" stroke="currentColor" stroke-width="1"/>
    <path id="Контур_179" data-name="Контур 179" d="M447.675,182.68h3.509a.675.675,0,0,0,0-1.35h-3.509a.675.675,0,1,0,0,1.35Z" transform="translate(-444.976 -158.341)" fill="currentColor" stroke="currentColor" stroke-width="1"/>
    <path id="Контур_180" data-name="Контур 180" d="M450.675,208.02h3.509a.675.675,0,1,0,0-1.35h-3.509a.675.675,0,1,0,0,1.35Z" transform="translate(-448.381 -180.261)" fill="currentColor" stroke="currentColor" stroke-width="1"/>
    <path id="Контур_181" data-name="Контур 181" d="M454.675,233.35h3.509a.675.675,0,0,0,0-1.35h-3.509a.675.675,0,1,0,0,1.35Z" transform="translate(-452.921 -202.172)" fill="currentColor" stroke="currentColor" stroke-width="1"/>
    <path id="Контур_182" data-name="Контур 182" d="M240.675,129.828a.675.675,0,0,0,.675-.675v-6.479a.675.675,0,1,0-1.35,0v6.479A.675.675,0,0,0,240.675,129.828Z" transform="translate(-206.528 -107.018)" fill="currentColor" stroke="currentColor" stroke-width="1"/>
    <path id="Контур_183" data-name="Контур 183" d="M262.675,129.828a.675.675,0,0,0,.675-.675v-6.479a.675.675,0,1,0-1.35,0v6.479A.675.675,0,0,0,262.675,129.828Z" transform="translate(-231.497 -107.018)" fill="currentColor" stroke="currentColor" stroke-width="1"/>
    <path id="Контур_184" data-name="Контур 184" d="M203.675,335.35h12.957a.675.675,0,1,0,0-1.35H203.675a.675.675,0,1,0,0,1.35Z" transform="translate(-177.491 -290.405)" fill="currentColor" stroke="currentColor" stroke-width="1"/>
    <path id="Контур_185" data-name="Контур 185" d="M203.675,368.85h12.957a.675.675,0,1,0,0-1.35H203.675a.675.675,0,1,0,0,1.35Z" transform="translate(-177.491 -319.383)" fill="currentColor" stroke="currentColor" stroke-width="1"/>
    <path id="Контур_186" data-name="Контур 186" d="M203.675,402.35h12.957a.675.675,0,1,0,0-1.35H203.675a.675.675,0,1,0,0,1.35Z" transform="translate(-177.491 -348.362)" fill="currentColor" stroke="currentColor" stroke-width="1"/>
    <path id="Контур_187" data-name="Контур 187" d="M366.526,55.2A.675.675,0,0,0,367,54.05l-4.859-4.859a.676.676,0,0,0-.956.956l4.859,4.859A.675.675,0,0,0,366.526,55.2Z" transform="translate(-348.71 -43.866)" fill="currentColor" stroke="currentColor" stroke-width="1"/>
    <path id="Контур_188" data-name="Контур 188" d="M361.67,55.2a.675.675,0,0,0,.478-.2l4.859-4.859a.676.676,0,1,0-.956-.956l-4.859,4.859a.675.675,0,0,0,.478,1.153Z" transform="translate(-348.713 -43.866)" fill="currentColor" stroke="currentColor" stroke-width="1"/>
    <path id="Контур_189" data-name="Контур 189" d="M84.053,23.727a.661.661,0,0,0,.3-.073l.12-.061a.675.675,0,1,0-.609-1.2l-.12.061a.675.675,0,0,0,.305,1.277Zm2.529-1.28a.661.661,0,0,0,.3-.073l.12-.061a.675.675,0,1,0-.61-1.2l-.12.061a.675.675,0,0,0,.305,1.277Zm2.529-1.278a.675.675,0,0,0,.3-.073l.12-.062a.675.675,0,1,0-.609-1.2l-.12.061a.675.675,0,0,0,.305,1.278Zm2.529-1.28a.683.683,0,0,0,.3-.073l.12-.061a.675.675,0,0,0-.609-1.205l-.12.061a.675.675,0,0,0,.305,1.278Zm2.529-1.28a.675.675,0,0,0,.3-.073l.12-.061a.675.675,0,1,0-.609-1.2l-.12.061a.675.675,0,0,0,.305,1.277Z" transform="translate(-39.022 -16.355)" fill="currentColor" stroke="currentColor" stroke-width="1"/>
    <path id="Контур_190" data-name="Контур 190" d="M94.648,91.476a.675.675,0,0,0,.282-1.289l-.121-.057a.675.675,0,1,0-.564,1.227l.123.057A.675.675,0,0,0,94.648,91.476Zm-2.575-1.185A.675.675,0,0,0,92.355,89l-.121-.057a.675.675,0,1,0-.564,1.227l.123.055a.648.648,0,0,0,.281.057ZM89.5,89.107a.675.675,0,0,0,.282-1.288l-.123-.057a.675.675,0,0,0-.563,1.227l.123.055a.675.675,0,0,0,.281.057Zm-2.575-1.184a.675.675,0,0,0,.282-1.289l-.121-.055a.675.675,0,1,0-.564,1.226l.123.057a.675.675,0,0,0,.281.057ZM84.347,86.74a.675.675,0,0,0,.282-1.289l-.121-.055a.675.675,0,1,0-.564,1.221l.121.057a.675.675,0,0,0,.282.061Z" transform="translate(-39.381 -75.28)" fill="currentColor" stroke="currentColor" stroke-width="1"/>
    <path id="Контур_191" data-name="Контур 191" d="M44.795,71.35h.135a.675.675,0,1,0,0-1.35h-.135a.675.675,0,1,0,0,1.35Zm2.834,0h.135a.675.675,0,1,0,0-1.35h-.135a.675.675,0,1,0,0,1.35Zm2.834,0H50.6a.675.675,0,1,0,0-1.35h-.135a.675.675,0,1,0,0,1.35Zm2.834,0h.135a.675.675,0,1,0,0-1.35H53.3a.675.675,0,1,0,0,1.35Zm2.834,0h.135a.675.675,0,1,0,0-1.35h-.135a.675.675,0,1,0,0,1.35Zm2.834,0H59.1a.675.675,0,1,0,0-1.35h-.135a.675.675,0,1,0,0,1.35Zm2.834,0h.135a.675.675,0,1,0,0-1.35H61.8a.675.675,0,1,0,0,1.35Z" transform="translate(-1.351 -62.037)" fill="currentColor" stroke="currentColor" stroke-width="1"/>
  </g>
</svg>
