<svg xmlns="http://www.w3.org/2000/svg" width="79.056" height="48.566" viewBox="0 0 79.056 48.566">
  <g id="Сгруппировать_137" data-name="Сгруппировать 137" transform="translate(-9.483 -104.545)">
    <path fill="currentColor" id="Контур_153" data-name="Контур 153" d="M88.458,123.218a1.282,1.282,0,0,0-1.2-.836H57.775a10.763,10.763,0,0,0,2.786-6.969,10.869,10.869,0,0,0-17.338-8.733L20,122.978a12.869,12.869,0,0,0-2.374,1.11c-7.553,4.515-10.36,14.172-6.257,21.527a14.655,14.655,0,0,0,12.414,7.5h.045l30.75,0a1.282,1.282,0,0,0,.837-.311l32.675-28.162A1.283,1.283,0,0,0,88.458,123.218ZM44.71,108.77l.029-.021A8.3,8.3,0,0,1,58,115.413c0,3.436-2.623,6-4.2,7.227L35.222,136.206a11.828,11.828,0,0,0-.459-6.434l-.028-.076q-.082-.22-.173-.436c-.017-.041-.034-.082-.051-.123-.058-.135-.12-.268-.184-.4-.021-.043-.04-.087-.061-.13-.085-.172-.174-.342-.268-.51s-.176-.305-.268-.455l-.039-.063q-.141-.225-.291-.441l-.016-.022a11.181,11.181,0,0,0-7.508-4.665l-.044-.007c-.153-.023-.306-.044-.461-.062l-.043-.006Zm9.4,41.774-30.251,0a12.109,12.109,0,0,1-10.242-6.181c-3.434-6.156-1.042-14.265,5.333-18.075a10.239,10.239,0,0,1,2.093-.952c.106-.034.212-.067.319-.1h0A9.617,9.617,0,0,1,24,124.868a9.5,9.5,0,0,1,1.135.068c.075.009.15.019.224.03l.121.018a9.313,9.313,0,0,1,.913.2,8.658,8.658,0,0,1,4.633,3.056l.015.02q.25.324.471.675l.043.069c.07.114.139.229.2.346s.136.254.2.382l.037.074c.062.129.122.258.178.388l.013.03q.085.2.159.4l.007.018a9.568,9.568,0,0,1-.33,7.169l-.05.109q-.065.141-.135.281c-.017.035-.034.07-.051.1a10.36,10.36,0,0,1-3.91,4.167,5.971,5.971,0,0,1-4.633.694,5.349,5.349,0,0,1-3.319-2.572,6.183,6.183,0,0,1,2.43-8.176,2.361,2.361,0,0,1,1.831-.278,2.036,2.036,0,0,1,1.263.981,2.441,2.441,0,0,1-.989,3.223,1.283,1.283,0,1,0,1.317,2.2,5.022,5.022,0,0,0,1.912-6.675,4.581,4.581,0,0,0-2.838-2.208,4.907,4.907,0,0,0-3.812.554,8.767,8.767,0,0,0-3.354,11.627,7.9,7.9,0,0,0,4.9,3.8,8.514,8.514,0,0,0,6.612-.971,12.885,12.885,0,0,0,4.174-4.008,1.274,1.274,0,0,0,.339-.175l21.282-15.542H83.8Z" transform="translate(0 0)"/>
    <path fill="currentColor" id="Контур_154" data-name="Контур 154" d="M222.752,135.339a8.31,8.31,0,0,1,8.3,8.3,1.283,1.283,0,0,0,2.565,0,10.878,10.878,0,0,0-10.863-10.868,1.283,1.283,0,0,0,0,2.565Z" transform="translate(-177.998 -23.703)"/>
    <path fill="currentColor" id="Контур_155" data-name="Контур 155" d="M123.449,206.537a8.312,8.312,0,0,1,8.3,8.3,1.283,1.283,0,0,0,2.565,0,10.88,10.88,0,0,0-10.87-10.866,1.283,1.283,0,1,0,0,2.565Z" transform="translate(-94.616 -83.486)"/>
    <path fill="currentColor" id="Контур_156" data-name="Контур 156" d="M224.264,241.411a1.283,1.283,0,1,0,1.513,2.071l12.6-9.2a1.283,1.283,0,0,0-1.513-2.071Z" transform="translate(-179.903 -106.988)"/>
    <path fill="currentColor" id="Контур_157" data-name="Контур 157" d="M172.382,370.364l-15.6-.071h-.006a1.283,1.283,0,0,0-.006,2.565l15.6.071h.006a1.283,1.283,0,0,0,.006-2.565Z" transform="translate(-122.598 -223.141)"/>
  </g>
</svg>
