<svg xmlns="http://www.w3.org/2000/svg" width="66.5" height="66.5" viewBox="0 0 66.5 66.5">
  <g id="Сгруппировать_143" data-name="Сгруппировать 143" transform="translate(0.25 0.25)">
    <path id="Контур_139" data-name="Контур 139" d="M57.826,2.874A54.392,54.392,0,0,0,39.387,0,54.392,54.392,0,0,0,20.948,2.874c-5.271,1.977-8.174,4.736-8.174,7.771v21.29a6.048,6.048,0,0,0,2.282,4.44c-2.892,1.775-4.411,3.9-4.411,6.205V53.226H0V56.86l1.4,1.4-1.4.7V66H19.956a3.467,3.467,0,0,0,3.461-3.384,52.877,52.877,0,0,0,11.712,1.255,46.254,46.254,0,0,0,16.963-2.885c4.85-1.984,7.521-4.74,7.521-7.76V42.581a5.562,5.562,0,0,0-1.036-3.168C63.371,37.46,66,34.823,66,31.935V10.645C66,7.61,63.1,4.85,57.826,2.874ZM21.7,4.867A52.251,52.251,0,0,1,39.387,2.129,52.251,52.251,0,0,1,57.079,4.867c4.317,1.619,6.792,3.725,6.792,5.778S61.4,14.8,57.079,16.423a52.251,52.251,0,0,1-17.692,2.738A52.251,52.251,0,0,1,21.7,16.423C17.379,14.8,14.9,12.7,14.9,10.645S17.379,6.486,21.7,4.867ZM14.9,14.945a18,18,0,0,0,6.045,3.472A54.4,54.4,0,0,0,39.387,21.29a65.568,65.568,0,0,0,9.581-.683v4.535l1.4.7-1.4,1.4v12.51a63.186,63.186,0,0,1-9.581.705A52.25,52.25,0,0,1,21.7,37.713c-4.317-1.619-6.792-3.725-6.792-5.778ZM42.581,42.581c0,.618-2.611,2.129-7.452,2.129s-7.452-1.511-7.452-2.129c0-.156.257-.5.942-.873a64.456,64.456,0,0,0,10.767.873q1.605,0,3.178-.072A.216.216,0,0,1,42.581,42.581ZM21.29,62.537a1.336,1.336,0,0,1-1.334,1.334H2.129v-3.6L4.991,58.84,2.129,55.979v-.624H19.956a3.443,3.443,0,0,0,1.334-.267Zm-1.334-9.311H12.774v-6.19a11.006,11.006,0,0,0,.89.784,12.467,12.467,0,0,0,4.655,2.273l1.969.507a1.334,1.334,0,0,1-.332,2.626Zm31.33,5.789a44.108,44.108,0,0,1-16.157,2.727,50.219,50.219,0,0,1-11.71-1.313V52.161h-.01c0-.053,0-.108.006-.162a49.075,49.075,0,0,0,11.714,1.227A46.254,46.254,0,0,0,52.092,50.34a16.774,16.774,0,0,0,5.392-3.3v6.19C57.484,55.294,55.225,57.4,51.286,59.015Zm0-10.645A44.108,44.108,0,0,1,35.129,51.1a44.688,44.688,0,0,1-12.615-1.54,3.456,3.456,0,0,0-1.695-1.019l-1.969-.507a10.354,10.354,0,0,1-3.867-1.883c-1.008-.8-2.209-2.06-2.209-3.567,0-1.668,1.464-3.366,4.137-4.819a22.525,22.525,0,0,0,4.037,1.945A38.784,38.784,0,0,0,26,41.19a2.437,2.437,0,0,0-.447,1.391c0,2.8,4.82,4.258,9.581,4.258s9.581-1.463,9.581-4.258c0-.064,0-.132-.01-.2a51.318,51.318,0,0,0,11.787-2.2,3.779,3.779,0,0,1,1,2.406C57.484,44.648,55.225,46.758,51.286,48.37Zm5.793-10.657A38.442,38.442,0,0,1,51.1,39.372V28.118l2.862-2.862L51.1,23.826V20.249a41.112,41.112,0,0,0,6.729-1.832,18,18,0,0,0,6.045-3.472V31.935C63.871,33.989,61.4,36.095,57.079,37.713Z" stroke="currentColor" stroke-width="0.5"/>
    <path id="Контур_140" data-name="Контур 140" d="M233.581,56.516c4.761,0,9.581-1.463,9.581-4.258S238.342,48,233.581,48,224,49.463,224,52.258,228.82,56.516,233.581,56.516Zm0-6.387c4.84,0,7.452,1.511,7.452,2.129s-2.611,2.129-7.452,2.129-7.452-1.511-7.452-2.129S228.74,50.129,233.581,50.129Z" transform="translate(-194.194 -41.613)" stroke="currentColor" stroke-width="0.5"/>
    <path id="Контур_141" data-name="Контур 141" d="M192.535,260.283c-.713-.152-1.41-.32-2.072-.5l-.557,2.055c.7.19,1.435.367,2.186.527Z" transform="translate(-164.636 -225.215)" stroke="currentColor" stroke-width="0.5"/>
    <path id="Контур_142" data-name="Контур 142" d="M134.038,195.463l.7-2.011a12.274,12.274,0,0,1-4.607-2.445V184H128v7.6l.113.225C128.576,192.751,130.376,194.191,134.038,195.463Z" transform="translate(-110.968 -159.516)" stroke="currentColor" stroke-width="0.5"/>
  </g>
</svg>
