<svg xmlns="http://www.w3.org/2000/svg" width="59.194" height="49.266" viewBox="0 0 59.194 49.266">
  <g id="Сгруппировать_139" data-name="Сгруппировать 139" transform="translate(-0.65 -3.365)">
    <path id="Контур_158" data-name="Контур 158" d="M20.849,8.358a.914.914,0,1,1-1.828,0,8.1,8.1,0,1,0-8.1,8.1H49.569a8.1,8.1,0,1,0,0-16.192.914.914,0,0,1-.914-.914v-9.784H20.849ZM17.942,1.34A9.969,9.969,0,0,1,19.02,2.617V-20.36a8.073,8.073,0,0,0-2.371-5.726,8.072,8.072,0,0,0-5.725-2.371A8.073,8.073,0,0,0,5.2-26.086,8.073,8.073,0,0,0,2.828-20.36V2.617A9.925,9.925,0,0,1,17.942,1.34ZM3.907,15.375A9.894,9.894,0,0,1,1,8.358V-20.36a9.9,9.9,0,0,1,2.907-7.018,9.9,9.9,0,0,1,7.018-2.907,9.894,9.894,0,0,1,7.017,2.907,9.9,9.9,0,0,1,2.907,7.018v8.1H48.655V-29.371a.914.914,0,0,1,.914-.914,9.9,9.9,0,0,1,7.018,2.907,9.9,9.9,0,0,1,2.907,7.018V8.358a9.925,9.925,0,0,1-9.925,9.924H10.924A9.894,9.894,0,0,1,3.907,15.375ZM56.587,1.34a9.968,9.968,0,0,1,1.079,1.277V-20.36a8.072,8.072,0,0,0-2.371-5.726,8.074,8.074,0,0,0-4.812-2.32V-1.525a9.9,9.9,0,0,1,6.1,2.865" transform="translate(0 34)" fill="currentColor" stroke="currentColor" stroke-width="0.7"/>
  </g>
</svg>
