<svg xmlns="http://www.w3.org/2000/svg" width="58.353" height="59.396" viewBox="0 0 58.353 59.396">
  <path id="Контур_125" data-name="Контур 125" d="M61.824,8.936h0L59.086,6.254a4.4,4.4,0,0,0-6.216.065l-9.8,10-1.168.483A2.568,2.568,0,0,0,40.832,21.1l1.347,1.319L30.2,34.653l-3.279.915a.667.667,0,0,0-.468.478l-.946,3.682a.668.668,0,0,0,.18.644l2.715,2.66a.668.668,0,0,0,.468.191.686.686,0,0,0,.18-.025l3.661-1.021a.67.67,0,0,0,.468-.478l.847-3.3L46.008,26.166l1.347,1.32a2.5,2.5,0,0,0,1.77.739,2.667,2.667,0,0,0,.714-.1,2.507,2.507,0,0,0,1.791-1.793l.458-1.176,9.8-10.005a4.4,4.4,0,0,0-.066-6.215ZM32.943,37.593a.671.671,0,0,0-.17.3l-.8,3.1-2.92.814-2.163-2.119.754-2.933,3.08-.859a.669.669,0,0,0,.3-.176L43.139,23.356l1.915,1.875ZM60.932,14.214l-9.9,10.105a.672.672,0,0,0-.145.225l-.519,1.338a.755.755,0,0,0-.025.077,1.23,1.23,0,0,1-2.052.572l-1.825-1.788h0l-4.694-4.6a1.233,1.233,0,0,1,.53-2.063.618.618,0,0,0,.076-.027l1.328-.549a.661.661,0,0,0,.222-.15l9.895-10.1a3.061,3.061,0,0,1,4.325-.047l2.738,2.682h0a3.062,3.062,0,0,1,.044,4.325Zm-36.9,30.848c-3.912-3.828-9.21-6.74-11.325-4.581L9.7,43.551c-.954.973-.908,2.725.124,4.941.05.107.1.215.157.324l-3.928,4a.669.669,0,0,0,.01.945l9.634,9.44a.672.672,0,0,0,.468.191h.007a.669.669,0,0,0,.47-.2l3.928-4.009c.109.052.217.1.324.15a7.559,7.559,0,0,0,2.97.747,2.655,2.655,0,0,0,1.972-.724l3.007-3.069c.954-.973.908-2.725-.124-4.942a22.861,22.861,0,0,0-4.687-6.287Zm-9.356-3.979c1.784,0,5.164,1.745,8.42,4.931a21.508,21.508,0,0,1,4.412,5.9c.758,1.622.9,2.909.38,3.439-1.1,1.117-5.362-.613-9.434-4.6a21.508,21.508,0,0,1-4.412-5.9c-.758-1.622-.9-2.909-.38-3.439A1.379,1.379,0,0,1,14.673,41.084Zm1.479,20.7-8.678-8.5,3.179-3.248a27,27,0,0,0,8.678,8.5Zm8.728-3.358c-.519.531-1.808.415-3.447-.31a21.521,21.521,0,0,1-5.987-4.292,21.5,21.5,0,0,1-4.412-5.9c-.759-1.622-.9-2.909-.38-3.439L12.07,43.04a8.545,8.545,0,0,0,.759,2.384,22.846,22.846,0,0,0,4.689,6.287c2.769,2.714,6.229,4.961,8.77,5.278ZM16.5,45.123a.669.669,0,0,1,.937-.954l3.326,3.27.792-.808a.668.668,0,1,1,.955.933l-.793.812,3.327,3.272a.669.669,0,0,1-.938.954l-3.326-3.27-.792.808a.669.669,0,0,1-.955-.936l.794-.81ZM19.4,36.588c-1.189-2.546-1.248-4.557-.167-5.661,1.271-1.3,3.813-1.026,6.952.689l-.34-1.233a.668.668,0,1,1,1.289-.356l.784,2.841,0,.017c0,.012.006.025.008.037l0,.03a.309.309,0,0,1,0,.034v.13l0,.03a.154.154,0,0,1-.006.034l-.006.029a.354.354,0,0,1-.01.035l-.009.027a.316.316,0,0,1-.014.034l-.012.027c-.005.011-.01.021-.016.032l-.016.028-.01.018-.007.01-.02.028-.019.025-.022.025-.023.024-.024.022-.025.021-.026.019-.027.019-.027.017-.029.016-.029.014-.031.014-.029.01-.034.012-.011,0-2.842.784a.679.679,0,0,1-.178.024.669.669,0,0,1-.178-1.313l1.337-.369c-2.512-1.379-4.6-1.773-5.4-.954-1.324,1.351.658,6.243,5.618,11.1.709.695,1.445,1.353,2.188,1.957a.669.669,0,1,1-.844,1.038c-.774-.63-1.541-1.316-2.279-2.039a26.668,26.668,0,0,1-5.47-7.334Zm16.848,4.332c2.545,3.749,3.192,6.878,1.73,8.37a3,3,0,0,1-2.229.816,7.287,7.287,0,0,1-2.206-.394l.642,1.237a.669.669,0,1,1-1.187.616l-1.358-2.617a.668.668,0,0,1,.285-.9l2.616-1.358a.668.668,0,1,1,.616,1.187l-1.129.584c1.4.44,2.484.412,2.994-.108.938-.958.182-3.644-1.882-6.683a.669.669,0,1,1,1.1-.751Z" transform="translate(-5.289 -4.501)" fill="currentColor" stroke="currentColor" stroke-width="1"/>
</svg>
