<svg xmlns="http://www.w3.org/2000/svg" width="63.494" height="60.768" viewBox="0 0 63.494 60.768">
  <g id="Сгруппировать_140" data-name="Сгруппировать 140" transform="translate(-979.9 -1517.538)">
    <path id="Вычитание_1" data-name="Вычитание 1" d="M31.344,24.96v0l-.662-.332L0,6.916V3.009l.666-.333L5.3,0,6.612.757,1.993,3.427,8.978,7.5,31.344,20.387,55.126,6.67l5.569-3.243L56.078.758,57.39,0l4.636,2.676.666.333V6.916L32.009,24.627l-.665.332ZM61.361,4.588,32.009,21.552v1.663L61.36,6.169V4.588ZM1.327,4.506V6.169L30.682,23.215V21.47L1.327,4.506Z" transform="translate(980.302 1552.99)" fill="currentColor" stroke="currentColor" stroke-width="0.8"/>
    <path id="Вычитание_2" data-name="Вычитание 2" d="M31.344,24.96v0l-.662-.332L0,6.916V3.009l.666-.333L5.3,0,6.612.757,1.993,3.427,8.978,7.5,31.344,20.387,55.126,6.67l5.569-3.243L56.078.758,57.39,0l4.636,2.676.666.333V6.916L32.009,24.627l-.665.332ZM61.361,4.588,32.009,21.552v1.663L61.36,6.169V4.588ZM1.327,4.506V6.169L30.682,23.215V21.47L1.327,4.506Z" transform="translate(980.302 1543.012)" fill="currentColor" stroke="currentColor" stroke-width="0.8"/>
    <path id="Контур_161" data-name="Контур 161" d="M74.328,43.611,43.647,25.9,12.965,43.611l-.665.333v3.908L42.982,65.562l.665.333.665-.333L74.994,47.851V43.943ZM42.982,64.148,13.63,47.1V45.44L42.982,62.4v1.746Zm.665-2.827h0L21.28,48.433,14.3,44.359,43.647,27.4,73,44.359,67.427,47.6ZM73.663,47.1,44.312,64.148V62.485L73.663,45.523Z" transform="translate(968 1492.1)" fill="currentColor" stroke="currentColor" stroke-width="0.8"/>
  </g>
</svg>
