<svg xmlns="http://www.w3.org/2000/svg" width="62.263" height="62.263" viewBox="0 0 62.263 62.263">
  <g id="Сгруппировать_145" data-name="Сгруппировать 145" transform="translate(-0.868 -0.868)">
    <path id="Контур_194" data-name="Контур 194" d="M21,32a11.037,11.037,0,0,1,6.417-10l-.834-1.818a13.005,13.005,0,0,0,0,23.642L27.417,42A11.037,11.037,0,0,1,21,32Z" fill="currentColor" stroke="currentColor" stroke-width="0.6"/>
    <path id="Контур_195" data-name="Контур 195" d="M37.417,20.179,36.583,22a11,11,0,0,1,0,20.006l.834,1.818a13.005,13.005,0,0,0,0-23.642Z" fill="currentColor" stroke="currentColor" stroke-width="0.6"/>
    <path id="Контур_196" data-name="Контур 196" d="M32,15A17,17,0,1,0,49,32,17.019,17.019,0,0,0,32,15Zm0,32A15,15,0,1,1,47,32,15.017,15.017,0,0,1,32,47Z" fill="currentColor" stroke="currentColor" stroke-width="0.6"/>
    <path id="Контур_197" data-name="Контур 197" d="M57,32A25,25,0,1,0,32,57,25.028,25.028,0,0,0,57,32ZM32,55A23,23,0,1,1,55,32,23.026,23.026,0,0,1,32,55Z" fill="currentColor" stroke="currentColor" stroke-width="0.6"/>
    <rect id="Прямоугольник_135" data-name="Прямоугольник 135" width="2" height="8.485" transform="translate(1.292 56.706) rotate(-45)" fill="currentColor" stroke="currentColor" stroke-width="0.6"/>
    <rect id="Прямоугольник_136" data-name="Прямоугольник 136" width="2" height="5.657" transform="translate(8.293 51.707) rotate(-45)" fill="currentColor" stroke="currentColor" stroke-width="0.6"/>
    <rect id="Прямоугольник_137" data-name="Прямоугольник 137" width="2" height="16.971" transform="translate(1.293 50.707) rotate(-45)" fill="currentColor" stroke="currentColor" stroke-width="0.6"/>
    <rect id="Прямоугольник_138" data-name="Прямоугольник 138" width="8.485" height="2" transform="translate(55.292 61.293) rotate(-45)" fill="currentColor" stroke="currentColor" stroke-width="0.6"/>
    <rect id="Прямоугольник_139" data-name="Прямоугольник 139" width="5.657" height="2" transform="translate(50.293 54.293) rotate(-45)" fill="currentColor" stroke="currentColor" stroke-width="0.6"/>
    <rect id="Прямоугольник_140" data-name="Прямоугольник 140" width="16.971" height="2" transform="translate(49.292 61.293) rotate(-45)" fill="currentColor" stroke="currentColor" stroke-width="0.6"/>
    <rect id="Прямоугольник_141" data-name="Прямоугольник 141" width="2" height="8.485" transform="translate(55.292 2.707) rotate(-45)" fill="currentColor" stroke="currentColor" stroke-width="0.6"/>
    <rect id="Прямоугольник_142" data-name="Прямоугольник 142" width="2" height="5.657" transform="translate(50.293 9.708) rotate(-45)" fill="currentColor" stroke="currentColor" stroke-width="0.6"/>
    <rect id="Прямоугольник_143" data-name="Прямоугольник 143" width="2" height="16.971" transform="translate(49.293 2.708) rotate(-45)" fill="currentColor" stroke="currentColor" stroke-width="0.6"/>
    <rect id="Прямоугольник_144" data-name="Прямоугольник 144" width="8.485" height="2" transform="translate(1.293 7.293) rotate(-45)" fill="currentColor" stroke="currentColor" stroke-width="0.6"/>
    <rect id="Прямоугольник_145" data-name="Прямоугольник 145" width="5.657" height="2" transform="translate(8.293 12.293) rotate(-45)" fill="currentColor" stroke="currentColor" stroke-width="0.6"/>
    <rect id="Прямоугольник_146" data-name="Прямоугольник 146" width="16.971" height="2" transform="translate(1.293 13.293) rotate(-45)" fill="currentColor" stroke="currentColor" stroke-width="0.6"/>
  </g>
</svg>
