<svg xmlns="http://www.w3.org/2000/svg" width="62.256" height="66.531" viewBox="0 0 62.256 66.531">
  <g id="Сгруппировать_142" data-name="Сгруппировать 142" transform="translate(0.5 0.499)">
    <path id="Контур_119" data-name="Контур 119" d="M62.53,19.645A1.035,1.035,0,0,0,61.5,18.61H37.41a1.035,1.035,0,0,0-1.035,1.035V45.83a1.034,1.034,0,0,0,1.035,1.035H61.5A1.035,1.035,0,0,0,62.53,45.83ZM60.46,20.679V44.795H38.444V20.679Z" transform="translate(-13.766 -6.117)" fill="currentColor" stroke="currentColor" stroke-width="1" fill-rule="evenodd"/>
    <path id="Контур_120" data-name="Контур 120" d="M14.657,87.993A8.993,8.993,0,0,1,5.668,79,1.035,1.035,0,0,0,3.6,79,11.063,11.063,0,0,0,14.657,90.062a1.035,1.035,0,1,0,0-2.069Z" transform="translate(-3.599 -24.53)" fill="currentColor" stroke="currentColor" stroke-width="1" fill-rule="evenodd"/>
    <path id="Контур_121" data-name="Контур 121" d="M75.9,2.569a8.993,8.993,0,0,1,8.989,8.989,1.035,1.035,0,0,0,2.069,0A11.063,11.063,0,0,0,75.9.5a1.035,1.035,0,1,0,0,2.069Z" transform="translate(-25.707 -0.499)" fill="currentColor" stroke="currentColor" stroke-width="1" fill-rule="evenodd"/>
    <path id="Контур_122" data-name="Контур 122" d="M17.282,82.155A3.153,3.153,0,0,1,14.131,79a1.035,1.035,0,0,0-2.069,0,5.223,5.223,0,0,0,5.22,5.22,1.035,1.035,0,1,0,0-2.069Z" transform="translate(-6.224 -24.53)" fill="currentColor" stroke="currentColor" stroke-width="1" fill-rule="evenodd"/>
    <path id="Контур_123" data-name="Контур 123" d="M75.9,11.032a3.153,3.153,0,0,1,3.151,3.151,1.035,1.035,0,0,0,2.069,0,5.223,5.223,0,0,0-5.22-5.22,1.035,1.035,0,1,0,0,2.069Z" transform="translate(-25.707 -3.124)" fill="currentColor" stroke="currentColor" stroke-width="1" fill-rule="evenodd"/>
    <path id="Контур_124" data-name="Контур 124" d="M45.071,37.1a1.035,1.035,0,0,0-1.035-1.035H19.951A1.035,1.035,0,0,0,18.916,37.1V63.288a1.035,1.035,0,0,0,1.035,1.035H44.037a1.035,1.035,0,0,0,1.035-1.035ZM43,38.137V62.253H20.985V38.137Z" transform="translate(-8.35 -11.532)" fill="currentColor" stroke="currentColor" stroke-width="1" fill-rule="evenodd"/>
  </g>
</svg>
