<svg xmlns="http://www.w3.org/2000/svg" width="61.781" height="48.966" viewBox="0 0 61.781 48.966">
  <path id="Контур_149" data-name="Контур 149" d="M65.347,24.548a2.189,2.189,0,0,0-2.02-1.3H56.473l8.51-9.57A2.208,2.208,0,0,0,63.338,10h-41.2a2.21,2.21,0,0,0-1.656.74L4.783,28.4a2.208,2.208,0,0,0,1.645,3.676h6.865l-8.51,9.57a2.208,2.208,0,0,0,1.656,3.676h6.854l-8.51,9.57a2.208,2.208,0,0,0,1.656,3.676H47.632a2.185,2.185,0,0,0,1.656-.751l15.7-17.66a2.208,2.208,0,0,0-1.656-3.676H56.473l8.51-9.57a2.181,2.181,0,0,0,.364-2.373ZM22.134,12.208H63.327L53.338,23.444a10.553,10.553,0,0,1-5.133.916,10.349,10.349,0,0,1-3.654-.993,1.125,1.125,0,0,0-.96,0,1.112,1.112,0,0,0-.6.751,7.96,7.96,0,0,1-5.011,5.762H6.439l15.7-17.66ZM50.645,26.479l-.706.795a7.742,7.742,0,0,1-5.773,2.594H42.113A9.7,9.7,0,0,0,43.5,28.3a10.271,10.271,0,0,0,1.291-2.461,12.539,12.539,0,0,0,3.245.706,11.866,11.866,0,0,0,2.6-.077ZM63.327,38.687l-15.7,17.66H6.439L16.251,45.31h31.38a2.185,2.185,0,0,0,1.656-.751l5.221-5.872h8.819ZM47.632,43.1H6.439l9.813-11.038h27.9a9.952,9.952,0,0,0,7.428-3.333l2.925-3.289h8.819L47.632,43.1ZM18.326,35.376a1.1,1.1,0,1,1-1.1-1.1A1.107,1.107,0,0,1,18.326,35.376Zm6.623,0a1.1,1.1,0,1,1-1.1-1.1A1.107,1.107,0,0,1,24.949,35.376Zm6.623,0a1.1,1.1,0,1,1-1.1-1.1A1.107,1.107,0,0,1,31.572,35.376Zm6.623,0a1.1,1.1,0,1,1-1.1-1.1A1.107,1.107,0,0,1,38.194,35.376Zm6.623,0a1.1,1.1,0,1,1-1.1-1.1A1.107,1.107,0,0,1,44.817,35.376Zm6.623,0a1.1,1.1,0,1,1-1.1-1.1A1.107,1.107,0,0,1,51.44,35.376ZM55.3,31.513a1.1,1.1,0,1,1-1.1-1.1A1.107,1.107,0,0,1,55.3,31.513ZM15.015,39.791a1.1,1.1,0,1,1-1.1-1.1A1.107,1.107,0,0,1,15.015,39.791Zm6.623,0a1.1,1.1,0,1,1-1.1-1.1A1.107,1.107,0,0,1,21.638,39.791Zm6.623,0a1.1,1.1,0,1,1-1.1-1.1A1.107,1.107,0,0,1,28.26,39.791Zm6.623,0a1.1,1.1,0,1,1-1.1-1.1A1.107,1.107,0,0,1,34.883,39.791Zm6.623,0a1.1,1.1,0,1,1-1.1-1.1A1.107,1.107,0,0,1,41.506,39.791Zm6.623,0a1.1,1.1,0,1,1-1.1-1.1A1.107,1.107,0,0,1,48.128,39.791Z" transform="translate(-3.992 -9.8)" stroke="currentColor" stroke-width="0.4"/>
</svg>
