<svg xmlns="http://www.w3.org/2000/svg" width="61.257" height="65.533" viewBox="0 0 61.257 65.533">
  <g id="Сгруппировать_132" data-name="Сгруппировать 132" transform="translate(-1161 -1160)">
    <g id="Сгруппировать_130" data-name="Сгруппировать 130" transform="translate(36.95 -200)">
      <circle id="Эллипс_17" data-name="Эллипс 17" cx="2.017" cy="2.017" r="2.017" transform="translate(1158.436 1390.742)" fill="none" stroke="currentColor" stroke-width="0.8"/>
      <circle id="Эллипс_18" data-name="Эллипс 18" cx="2.017" cy="2.017" r="2.017" transform="translate(1147.147 1390.742)" fill="none" stroke="currentColor" stroke-width="0.8"/>
      <path id="Контур_126" data-name="Контур 126" d="M16.685,31.184V28.436a.769.769,0,0,1,1.538,0v2.748a13.77,13.77,0,0,0,0-27.5V6.432a.769.769,0,0,1-1.538,0V3.684a13.77,13.77,0,0,0,0,27.5ZM23.1,13.921a3.515,3.515,0,1,1-3.514,3.514A3.515,3.515,0,0,1,23.1,13.921Zm-11.29,0a3.515,3.515,0,1,1-3.515,3.514,3.515,3.515,0,0,1,3.515-3.514Z" transform="translate(1137.355 1375.325)" fill="none" stroke="currentColor" stroke-width="0.8"/>
      <path id="Контур_127" data-name="Контур 127" d="M.956,33.6a3.887,3.887,0,0,0,3.876,3.877H33.6A3.889,3.889,0,0,0,37.479,33.6V4.832A3.887,3.887,0,0,0,33.6.956H4.832A3.886,3.886,0,0,0,.956,4.832Zm33.3,1.556a5.952,5.952,0,1,0,0-.007Zm0-31.869a.893.893,0,1,1,0-.007Zm-15.042.64A15.288,15.288,0,1,1,3.929,19.217,15.288,15.288,0,0,1,19.217,3.929ZM4.17,3.282A1.194,1.194,0,1,1,2.977,4.476,1.194,1.194,0,0,1,4.17,3.282Zm0,29.481a1.194,1.194,0,1,1-1.194,1.194A1.194,1.194,0,0,1,4.17,32.764Z" transform="translate(1135.592 1373.542)" fill="none" stroke="currentColor" stroke-width="0.8"/>
      <path id="Контур_128" data-name="Контур 128" d="M34.194.05H5.424A5.385,5.385,0,0,0,.05,5.424v28.77a5.385,5.385,0,0,0,5.374,5.374h28.77a5.387,5.387,0,0,0,5.374-5.374V5.424A5.385,5.385,0,0,0,34.194.05Zm-28.77,1.5h28.77a3.887,3.887,0,0,1,3.877,3.876v28.77a3.889,3.889,0,0,1-3.877,3.877H5.424a3.887,3.887,0,0,1-3.876-3.877V5.424A3.886,3.886,0,0,1,5.424,1.548Z" transform="translate(1135 1372.95)" fill="currentColor" stroke="currentColor" stroke-width="0.8"/>
      <path id="Контур_129" data-name="Контур 129" d="M18.042,33.33A15.288,15.288,0,1,0,2.754,18.042,15.288,15.288,0,0,0,18.042,33.33ZM17.273,4.292V7.04a.769.769,0,0,0,1.538,0V4.292a13.77,13.77,0,0,1,0,27.5V29.044a.769.769,0,0,0-1.538,0v2.748a13.77,13.77,0,0,1,0-27.5Z" transform="translate(1136.767 1374.717)" fill="currentColor" stroke="currentColor" stroke-width="0.8"/>
      <path id="Контур_130" data-name="Контур 130" d="M9.975,16.9A3.515,3.515,0,1,0,6.46,13.389,3.515,3.515,0,0,0,9.975,16.9Zm0-5.532a2.017,2.017,0,1,1-2.017,2.017A2.017,2.017,0,0,1,9.975,11.372Z" transform="translate(1139.189 1379.37)" fill="currentColor" stroke="currentColor" stroke-width="0.8"/>
      <path id="Контур_131" data-name="Контур 131" d="M16.8,16.9a3.515,3.515,0,1,0-3.514-3.515A3.515,3.515,0,0,0,16.8,16.9Zm0-5.532a2.017,2.017,0,1,1-2.017,2.017A2.017,2.017,0,0,1,16.8,11.372Z" transform="translate(1143.651 1379.37)" fill="currentColor" stroke="currentColor" stroke-width="0.8"/>
      <path id="Контур_132" data-name="Контур 132" d="M3.372,4.75A1.192,1.192,0,1,0,2.528,4.4,1.194,1.194,0,0,0,3.372,4.75Z" transform="translate(1136.39 1374.461)" fill="currentColor" stroke="currentColor" stroke-width="0.8"/>
      <circle id="Эллипс_19" data-name="Эллипс 19" cx="1.194" cy="1.194" r="1.194" transform="translate(1168.657 1376.825)" fill="currentColor" stroke="currentColor" stroke-width="0.8"/>
      <path id="Контур_133" data-name="Контур 133" d="M21.572,20.193a1.194,1.194,0,1,0,1.194,1.194A1.194,1.194,0,0,0,21.572,20.193Z" transform="translate(1148.284 1386.113)" fill="currentColor" stroke="currentColor" stroke-width="0.8"/>
      <path id="Контур_134" data-name="Контур 134" d="M3.372,22.581a1.194,1.194,0,1,0-1.194-1.194,1.194,1.194,0,0,0,1.194,1.194Z" transform="translate(1136.39 1386.113)" fill="currentColor" stroke="currentColor" stroke-width="0.8"/>
    </g>
    <g id="Сгруппировать_131" data-name="Сгруппировать 131" transform="translate(-0.188 0.002)">
      <path id="Контур_135" data-name="Контур 135" d="M14.657,87.993A8.993,8.993,0,0,1,5.668,79,1.035,1.035,0,0,0,3.6,79,11.063,11.063,0,0,0,14.657,90.062a1.035,1.035,0,1,0,0-2.069Z" transform="translate(1157.589 1135.469)" fill="currentColor" fill-rule="evenodd"/>
      <path id="Контур_136" data-name="Контур 136" d="M75.9,2.569a8.993,8.993,0,0,1,8.989,8.989,1.035,1.035,0,0,0,2.069,0A11.063,11.063,0,0,0,75.9.5a1.035,1.035,0,1,0,0,2.069Z" transform="translate(1135.481 1159.498)" fill="currentColor" fill-rule="evenodd"/>
      <path id="Контур_137" data-name="Контур 137" d="M17.282,82.155A3.153,3.153,0,0,1,14.131,79a1.035,1.035,0,0,0-2.069,0,5.223,5.223,0,0,0,5.22,5.22,1.035,1.035,0,1,0,0-2.069Z" transform="translate(1154.964 1135.469)" fill="currentColor" fill-rule="evenodd"/>
      <path id="Контур_138" data-name="Контур 138" d="M75.9,11.032a3.153,3.153,0,0,1,3.151,3.151,1.035,1.035,0,0,0,2.069,0,5.223,5.223,0,0,0-5.22-5.22,1.035,1.035,0,1,0,0,2.069Z" transform="translate(1135.481 1156.873)" fill="currentColor" fill-rule="evenodd"/>
    </g>
  </g>
</svg>
