<svg xmlns="http://www.w3.org/2000/svg" width="64.312" height="62.446" viewBox="0 0 64.312 62.446">
  <path id="Контур_117" data-name="Контур 117" d="M113.642,664.56V675.9h4.725a.945.945,0,1,1,0,1.89h-4.725v4.725a.945.945,0,0,1-1.89,0v-4.725H100.413v4.725a.945.945,0,0,1-1.89,0v-4.725H93.8a.945.945,0,1,1,0-1.89h4.725V664.56H93.8a.945.945,0,1,1,0-1.89h4.725v-4.725a.945.945,0,0,1,1.89,0v4.725h11.339v-4.725a.945.945,0,0,1,1.89,0v4.725h4.725a.945.945,0,1,1,0,1.89Zm-1.89,0H100.413V675.9h11.339Zm-42.523-5.479-5.146,3.43a.945.945,0,0,1-1.048,0l-5.67-3.78a.945.945,0,1,1,1.048-1.572l5.146,3.43,5.146-3.43a.945.945,0,0,1,1.048,0l5.146,3.43,5.146-3.43a.945.945,0,1,1,1.048,1.572l-5.67,3.78a.945.945,0,0,1-1.048,0Zm-5.146,13.825a.945.945,0,0,1-1.048,0l-5.67-3.78a.945.945,0,1,1,1.048-1.572l5.146,3.43,5.146-3.43a.945.945,0,0,1,1.048,0l5.146,3.43,5.146-3.43a.945.945,0,1,1,1.048,1.572l-5.67,3.78a.945.945,0,0,1-1.048,0l-5.146-3.43Zm0,10.394a.945.945,0,0,1-1.048,0l-5.67-3.78a.945.945,0,1,1,1.048-1.572l5.146,3.43,5.146-3.43a.945.945,0,0,1,1.048,0l5.146,3.43,5.146-3.43a.945.945,0,1,1,1.048,1.572l-5.67,3.78a.945.945,0,0,1-1.048,0l-5.146-3.43Zm29.991,9.885a.945.945,0,0,1,1.336,1.336l-.945.945a.945.945,0,0,1-1.336-1.336ZM57.417,717.476a1.417,1.417,0,1,1,1.417-1.417A1.417,1.417,0,0,1,57.417,717.476Zm0-11.339a1.417,1.417,0,1,1,1.417-1.417A1.417,1.417,0,0,1,57.417,706.137Zm0-11.339a1.417,1.417,0,1,1,1.417-1.417A1.417,1.417,0,0,1,57.417,694.8Zm11.339,22.679a1.417,1.417,0,1,1,1.417-1.417A1.417,1.417,0,0,1,68.757,717.476Zm0-11.339a1.417,1.417,0,1,1,1.417-1.417A1.417,1.417,0,0,1,68.757,706.137Zm0-11.339a1.417,1.417,0,1,1,1.417-1.417A1.417,1.417,0,0,1,68.757,694.8Zm-5.67,5.67A1.417,1.417,0,1,1,64.5,699.05,1.417,1.417,0,0,1,63.087,700.467Zm11.339,0a1.417,1.417,0,1,1,1.417-1.417A1.417,1.417,0,0,1,74.427,700.467ZM63.087,711.807a1.417,1.417,0,1,1,1.417-1.417A1.417,1.417,0,0,1,63.087,711.807Zm11.339,0a1.417,1.417,0,1,1,1.417-1.417A1.417,1.417,0,0,1,74.427,711.807Zm5.67,5.67a1.417,1.417,0,1,1,1.417-1.417A1.417,1.417,0,0,1,80.1,717.476Zm0-11.339a1.417,1.417,0,1,1,1.417-1.417A1.417,1.417,0,0,1,80.1,706.137Zm0-11.339a1.417,1.417,0,1,1,1.417-1.417A1.417,1.417,0,0,1,80.1,694.8Zm36.657,21.066a.945.945,0,0,1,1.336,1.336l-.945.945a.945.945,0,1,1-1.336-1.336Zm0-22.679a.945.945,0,0,1,1.336,1.336L94.466,718.145a.945.945,0,0,1-1.336-1.336Zm-11.339,0a.945.945,0,0,1,1.336,1.336L94.466,706.805a.945.945,0,0,1-1.336-1.336Zm11.339,11.339a.945.945,0,0,1,1.336,1.336l-12.284,12.284a.945.945,0,1,1-1.336-1.336Z" transform="translate(-55.5 -656.476)" fill="#0d0d0d" stroke="currentColor" stroke-width="1"/>
</svg>
