<?xml version="1.0" encoding="UTF-8"?><!DOCTYPE svg PUBLIC "-//W3C//DTD SVG 1.1//EN" "http://www.w3.org/Graphics/SVG/1.1/DTD/svg11.dtd"><svg xmlns="http://www.w3.org/2000/svg" xmlns:xlink="http://www.w3.org/1999/xlink"><symbol id="picture-1" viewBox="0 0 64.312 62.446">
  <path id="&#x41a;&#x43e;&#x43d;&#x442;&#x443;&#x440;_117" data-name="&#x41a;&#x43e;&#x43d;&#x442;&#x443;&#x440; 117" d="M113.642,664.56V675.9h4.725a.945.945,0,1,1,0,1.89h-4.725v4.725a.945.945,0,0,1-1.89,0v-4.725H100.413v4.725a.945.945,0,0,1-1.89,0v-4.725H93.8a.945.945,0,1,1,0-1.89h4.725V664.56H93.8a.945.945,0,1,1,0-1.89h4.725v-4.725a.945.945,0,0,1,1.89,0v4.725h11.339v-4.725a.945.945,0,0,1,1.89,0v4.725h4.725a.945.945,0,1,1,0,1.89Zm-1.89,0H100.413V675.9h11.339Zm-42.523-5.479-5.146,3.43a.945.945,0,0,1-1.048,0l-5.67-3.78a.945.945,0,1,1,1.048-1.572l5.146,3.43,5.146-3.43a.945.945,0,0,1,1.048,0l5.146,3.43,5.146-3.43a.945.945,0,1,1,1.048,1.572l-5.67,3.78a.945.945,0,0,1-1.048,0Zm-5.146,13.825a.945.945,0,0,1-1.048,0l-5.67-3.78a.945.945,0,1,1,1.048-1.572l5.146,3.43,5.146-3.43a.945.945,0,0,1,1.048,0l5.146,3.43,5.146-3.43a.945.945,0,1,1,1.048,1.572l-5.67,3.78a.945.945,0,0,1-1.048,0l-5.146-3.43Zm0,10.394a.945.945,0,0,1-1.048,0l-5.67-3.78a.945.945,0,1,1,1.048-1.572l5.146,3.43,5.146-3.43a.945.945,0,0,1,1.048,0l5.146,3.43,5.146-3.43a.945.945,0,1,1,1.048,1.572l-5.67,3.78a.945.945,0,0,1-1.048,0l-5.146-3.43Zm29.991,9.885a.945.945,0,0,1,1.336,1.336l-.945.945a.945.945,0,0,1-1.336-1.336ZM57.417,717.476a1.417,1.417,0,1,1,1.417-1.417A1.417,1.417,0,0,1,57.417,717.476Zm0-11.339a1.417,1.417,0,1,1,1.417-1.417A1.417,1.417,0,0,1,57.417,706.137Zm0-11.339a1.417,1.417,0,1,1,1.417-1.417A1.417,1.417,0,0,1,57.417,694.8Zm11.339,22.679a1.417,1.417,0,1,1,1.417-1.417A1.417,1.417,0,0,1,68.757,717.476Zm0-11.339a1.417,1.417,0,1,1,1.417-1.417A1.417,1.417,0,0,1,68.757,706.137Zm0-11.339a1.417,1.417,0,1,1,1.417-1.417A1.417,1.417,0,0,1,68.757,694.8Zm-5.67,5.67A1.417,1.417,0,1,1,64.5,699.05,1.417,1.417,0,0,1,63.087,700.467Zm11.339,0a1.417,1.417,0,1,1,1.417-1.417A1.417,1.417,0,0,1,74.427,700.467ZM63.087,711.807a1.417,1.417,0,1,1,1.417-1.417A1.417,1.417,0,0,1,63.087,711.807Zm11.339,0a1.417,1.417,0,1,1,1.417-1.417A1.417,1.417,0,0,1,74.427,711.807Zm5.67,5.67a1.417,1.417,0,1,1,1.417-1.417A1.417,1.417,0,0,1,80.1,717.476Zm0-11.339a1.417,1.417,0,1,1,1.417-1.417A1.417,1.417,0,0,1,80.1,706.137Zm0-11.339a1.417,1.417,0,1,1,1.417-1.417A1.417,1.417,0,0,1,80.1,694.8Zm36.657,21.066a.945.945,0,0,1,1.336,1.336l-.945.945a.945.945,0,1,1-1.336-1.336Zm0-22.679a.945.945,0,0,1,1.336,1.336L94.466,718.145a.945.945,0,0,1-1.336-1.336Zm-11.339,0a.945.945,0,0,1,1.336,1.336L94.466,706.805a.945.945,0,0,1-1.336-1.336Zm11.339,11.339a.945.945,0,0,1,1.336,1.336l-12.284,12.284a.945.945,0,1,1-1.336-1.336Z" transform="translate(-55.5 -656.476)" fill="#0d0d0d" stroke="currentColor" stroke-width="1"/>
</symbol><symbol id="picture-10" viewBox="0 0 62.92 62.718">
  <path id="&#x41a;&#x43e;&#x43d;&#x442;&#x443;&#x440;_143" data-name="&#x41a;&#x43e;&#x43d;&#x442;&#x443;&#x440; 143" d="M50.936,5.936,65.478,20.477a3.183,3.183,0,0,1-.3,4.769L48.169,38.475a3.175,3.175,0,0,1-4.209-.264l0,0-.626-.626L39.869,41.05a1.937,1.937,0,0,1-2.732,0l-.834-.834-5.486,3.95H59.69a.719.719,0,0,1,.709.589L66.378,65.5a.718.718,0,0,1-.688.914l0,0H5.716a.719.719,0,0,1-.669-.986l5.976-20.742a.717.717,0,0,1,.688-.52v0h12.96l6.523-9.058c-.7-.7-1.4-1.2-1.4-2.2a1.928,1.928,0,0,1,.565-1.365l3.463-3.463a3.828,3.828,0,0,1-1.557-2.684,3.185,3.185,0,0,1,.666-2.151L46.167,6.234a3.181,3.181,0,0,1,4.769-.3ZM21.348,50.9a.717.717,0,0,1-.693-1.152l2.988-4.148H12.253L6.671,64.977H64.742L59.161,45.605H28.82L24.1,49c10.966-1.479,10.657,2.157,8.018,3.153-1.8.68-9.988,3.753-8.868,5.686.552.952,6.251.578,12.833.147a117.951,117.951,0,0,1,15.671-.368.719.719,0,0,1-.112,1.434,117.326,117.326,0,0,0-15.469.368c-7.056.461-13.168.861-14.165-.861-2.346-4.054,8.954-7.224,10.079-7.973-1.277-.749-5.411-.688-10.742.317Zm32.923,8.354c1.136.267,2,.874,2.343.037.384-.949-1.2-1.247-2.015-1.439a.72.72,0,0,0-.328,1.4ZM28.124,44.342l7.157-5.153-3.052-3.052-7.859,10.9Zm15.319-14.5-4.636-4.636a.965.965,0,0,1-.08-1.29l9.1-11.694a.719.719,0,0,0-1.136-.882l-9.1,11.692a2.414,2.414,0,0,0,.2,3.191l4.636,4.636a.72.72,0,0,0,1.021-1.016ZM31.381,33.253l6.779,6.779a.5.5,0,0,0,.7,0l3.463-3.463L34.844,29.1,31.382,32.56a.494.494,0,0,0,0,.693ZM64.462,21.5,49.919,6.954a1.734,1.734,0,0,0-2.615.163l-13.23,17.01a1.732,1.732,0,0,0,.144,2.308L44.98,37.2l0,0a1.733,1.733,0,0,0,2.311.144L64.3,24.113a1.739,1.739,0,0,0,.163-2.618Z" transform="translate(-4.343 -4.349)" fill="currentColor" stroke="currentColor" stroke-width="1.3" fill-rule="evenodd"/>
</symbol><symbol id="picture-11" viewBox="0 0 62.263 62.263">
  <g id="&#x421;&#x433;&#x440;&#x443;&#x43f;&#x43f;&#x438;&#x440;&#x43e;&#x432;&#x430;&#x442;&#x44c;_145" data-name="&#x421;&#x433;&#x440;&#x443;&#x43f;&#x43f;&#x438;&#x440;&#x43e;&#x432;&#x430;&#x442;&#x44c; 145" transform="translate(-0.868 -0.868)">
    <path id="&#x41a;&#x43e;&#x43d;&#x442;&#x443;&#x440;_194" data-name="&#x41a;&#x43e;&#x43d;&#x442;&#x443;&#x440; 194" d="M21,32a11.037,11.037,0,0,1,6.417-10l-.834-1.818a13.005,13.005,0,0,0,0,23.642L27.417,42A11.037,11.037,0,0,1,21,32Z" fill="currentColor" stroke="currentColor" stroke-width="0.6"/>
    <path id="&#x41a;&#x43e;&#x43d;&#x442;&#x443;&#x440;_195" data-name="&#x41a;&#x43e;&#x43d;&#x442;&#x443;&#x440; 195" d="M37.417,20.179,36.583,22a11,11,0,0,1,0,20.006l.834,1.818a13.005,13.005,0,0,0,0-23.642Z" fill="currentColor" stroke="currentColor" stroke-width="0.6"/>
    <path id="&#x41a;&#x43e;&#x43d;&#x442;&#x443;&#x440;_196" data-name="&#x41a;&#x43e;&#x43d;&#x442;&#x443;&#x440; 196" d="M32,15A17,17,0,1,0,49,32,17.019,17.019,0,0,0,32,15Zm0,32A15,15,0,1,1,47,32,15.017,15.017,0,0,1,32,47Z" fill="currentColor" stroke="currentColor" stroke-width="0.6"/>
    <path id="&#x41a;&#x43e;&#x43d;&#x442;&#x443;&#x440;_197" data-name="&#x41a;&#x43e;&#x43d;&#x442;&#x443;&#x440; 197" d="M57,32A25,25,0,1,0,32,57,25.028,25.028,0,0,0,57,32ZM32,55A23,23,0,1,1,55,32,23.026,23.026,0,0,1,32,55Z" fill="currentColor" stroke="currentColor" stroke-width="0.6"/>
    <rect id="&#x41f;&#x440;&#x44f;&#x43c;&#x43e;&#x443;&#x433;&#x43e;&#x43b;&#x44c;&#x43d;&#x438;&#x43a;_135" data-name="&#x41f;&#x440;&#x44f;&#x43c;&#x43e;&#x443;&#x433;&#x43e;&#x43b;&#x44c;&#x43d;&#x438;&#x43a; 135" width="2" height="8.485" transform="translate(1.292 56.706) rotate(-45)" fill="currentColor" stroke="currentColor" stroke-width="0.6"/>
    <rect id="&#x41f;&#x440;&#x44f;&#x43c;&#x43e;&#x443;&#x433;&#x43e;&#x43b;&#x44c;&#x43d;&#x438;&#x43a;_136" data-name="&#x41f;&#x440;&#x44f;&#x43c;&#x43e;&#x443;&#x433;&#x43e;&#x43b;&#x44c;&#x43d;&#x438;&#x43a; 136" width="2" height="5.657" transform="translate(8.293 51.707) rotate(-45)" fill="currentColor" stroke="currentColor" stroke-width="0.6"/>
    <rect id="&#x41f;&#x440;&#x44f;&#x43c;&#x43e;&#x443;&#x433;&#x43e;&#x43b;&#x44c;&#x43d;&#x438;&#x43a;_137" data-name="&#x41f;&#x440;&#x44f;&#x43c;&#x43e;&#x443;&#x433;&#x43e;&#x43b;&#x44c;&#x43d;&#x438;&#x43a; 137" width="2" height="16.971" transform="translate(1.293 50.707) rotate(-45)" fill="currentColor" stroke="currentColor" stroke-width="0.6"/>
    <rect id="&#x41f;&#x440;&#x44f;&#x43c;&#x43e;&#x443;&#x433;&#x43e;&#x43b;&#x44c;&#x43d;&#x438;&#x43a;_138" data-name="&#x41f;&#x440;&#x44f;&#x43c;&#x43e;&#x443;&#x433;&#x43e;&#x43b;&#x44c;&#x43d;&#x438;&#x43a; 138" width="8.485" height="2" transform="translate(55.292 61.293) rotate(-45)" fill="currentColor" stroke="currentColor" stroke-width="0.6"/>
    <rect id="&#x41f;&#x440;&#x44f;&#x43c;&#x43e;&#x443;&#x433;&#x43e;&#x43b;&#x44c;&#x43d;&#x438;&#x43a;_139" data-name="&#x41f;&#x440;&#x44f;&#x43c;&#x43e;&#x443;&#x433;&#x43e;&#x43b;&#x44c;&#x43d;&#x438;&#x43a; 139" width="5.657" height="2" transform="translate(50.293 54.293) rotate(-45)" fill="currentColor" stroke="currentColor" stroke-width="0.6"/>
    <rect id="&#x41f;&#x440;&#x44f;&#x43c;&#x43e;&#x443;&#x433;&#x43e;&#x43b;&#x44c;&#x43d;&#x438;&#x43a;_140" data-name="&#x41f;&#x440;&#x44f;&#x43c;&#x43e;&#x443;&#x433;&#x43e;&#x43b;&#x44c;&#x43d;&#x438;&#x43a; 140" width="16.971" height="2" transform="translate(49.292 61.293) rotate(-45)" fill="currentColor" stroke="currentColor" stroke-width="0.6"/>
    <rect id="&#x41f;&#x440;&#x44f;&#x43c;&#x43e;&#x443;&#x433;&#x43e;&#x43b;&#x44c;&#x43d;&#x438;&#x43a;_141" data-name="&#x41f;&#x440;&#x44f;&#x43c;&#x43e;&#x443;&#x433;&#x43e;&#x43b;&#x44c;&#x43d;&#x438;&#x43a; 141" width="2" height="8.485" transform="translate(55.292 2.707) rotate(-45)" fill="currentColor" stroke="currentColor" stroke-width="0.6"/>
    <rect id="&#x41f;&#x440;&#x44f;&#x43c;&#x43e;&#x443;&#x433;&#x43e;&#x43b;&#x44c;&#x43d;&#x438;&#x43a;_142" data-name="&#x41f;&#x440;&#x44f;&#x43c;&#x43e;&#x443;&#x433;&#x43e;&#x43b;&#x44c;&#x43d;&#x438;&#x43a; 142" width="2" height="5.657" transform="translate(50.293 9.708) rotate(-45)" fill="currentColor" stroke="currentColor" stroke-width="0.6"/>
    <rect id="&#x41f;&#x440;&#x44f;&#x43c;&#x43e;&#x443;&#x433;&#x43e;&#x43b;&#x44c;&#x43d;&#x438;&#x43a;_143" data-name="&#x41f;&#x440;&#x44f;&#x43c;&#x43e;&#x443;&#x433;&#x43e;&#x43b;&#x44c;&#x43d;&#x438;&#x43a; 143" width="2" height="16.971" transform="translate(49.293 2.708) rotate(-45)" fill="currentColor" stroke="currentColor" stroke-width="0.6"/>
    <rect id="&#x41f;&#x440;&#x44f;&#x43c;&#x43e;&#x443;&#x433;&#x43e;&#x43b;&#x44c;&#x43d;&#x438;&#x43a;_144" data-name="&#x41f;&#x440;&#x44f;&#x43c;&#x43e;&#x443;&#x433;&#x43e;&#x43b;&#x44c;&#x43d;&#x438;&#x43a; 144" width="8.485" height="2" transform="translate(1.293 7.293) rotate(-45)" fill="currentColor" stroke="currentColor" stroke-width="0.6"/>
    <rect id="&#x41f;&#x440;&#x44f;&#x43c;&#x43e;&#x443;&#x433;&#x43e;&#x43b;&#x44c;&#x43d;&#x438;&#x43a;_145" data-name="&#x41f;&#x440;&#x44f;&#x43c;&#x43e;&#x443;&#x433;&#x43e;&#x43b;&#x44c;&#x43d;&#x438;&#x43a; 145" width="5.657" height="2" transform="translate(8.293 12.293) rotate(-45)" fill="currentColor" stroke="currentColor" stroke-width="0.6"/>
    <rect id="&#x41f;&#x440;&#x44f;&#x43c;&#x43e;&#x443;&#x433;&#x43e;&#x43b;&#x44c;&#x43d;&#x438;&#x43a;_146" data-name="&#x41f;&#x440;&#x44f;&#x43c;&#x43e;&#x443;&#x433;&#x43e;&#x43b;&#x44c;&#x43d;&#x438;&#x43a; 146" width="16.971" height="2" transform="translate(1.293 13.293) rotate(-45)" fill="currentColor" stroke="currentColor" stroke-width="0.6"/>
  </g>
</symbol><symbol id="picture-12" viewBox="0 0 59.194 49.266">
  <g id="&#x421;&#x433;&#x440;&#x443;&#x43f;&#x43f;&#x438;&#x440;&#x43e;&#x432;&#x430;&#x442;&#x44c;_139" data-name="&#x421;&#x433;&#x440;&#x443;&#x43f;&#x43f;&#x438;&#x440;&#x43e;&#x432;&#x430;&#x442;&#x44c; 139" transform="translate(-0.65 -3.365)">
    <path id="&#x41a;&#x43e;&#x43d;&#x442;&#x443;&#x440;_158" data-name="&#x41a;&#x43e;&#x43d;&#x442;&#x443;&#x440; 158" d="M20.849,8.358a.914.914,0,1,1-1.828,0,8.1,8.1,0,1,0-8.1,8.1H49.569a8.1,8.1,0,1,0,0-16.192.914.914,0,0,1-.914-.914v-9.784H20.849ZM17.942,1.34A9.969,9.969,0,0,1,19.02,2.617V-20.36a8.073,8.073,0,0,0-2.371-5.726,8.072,8.072,0,0,0-5.725-2.371A8.073,8.073,0,0,0,5.2-26.086,8.073,8.073,0,0,0,2.828-20.36V2.617A9.925,9.925,0,0,1,17.942,1.34ZM3.907,15.375A9.894,9.894,0,0,1,1,8.358V-20.36a9.9,9.9,0,0,1,2.907-7.018,9.9,9.9,0,0,1,7.018-2.907,9.894,9.894,0,0,1,7.017,2.907,9.9,9.9,0,0,1,2.907,7.018v8.1H48.655V-29.371a.914.914,0,0,1,.914-.914,9.9,9.9,0,0,1,7.018,2.907,9.9,9.9,0,0,1,2.907,7.018V8.358a9.925,9.925,0,0,1-9.925,9.924H10.924A9.894,9.894,0,0,1,3.907,15.375ZM56.587,1.34a9.968,9.968,0,0,1,1.079,1.277V-20.36a8.072,8.072,0,0,0-2.371-5.726,8.074,8.074,0,0,0-4.812-2.32V-1.525a9.9,9.9,0,0,1,6.1,2.865" transform="translate(0 34)" fill="currentColor" stroke="currentColor" stroke-width="0.7"/>
  </g>
</symbol><symbol id="picture-13" viewBox="0 0 61.257 65.533">
  <g id="&#x421;&#x433;&#x440;&#x443;&#x43f;&#x43f;&#x438;&#x440;&#x43e;&#x432;&#x430;&#x442;&#x44c;_132" data-name="&#x421;&#x433;&#x440;&#x443;&#x43f;&#x43f;&#x438;&#x440;&#x43e;&#x432;&#x430;&#x442;&#x44c; 132" transform="translate(-1161 -1160)">
    <g id="&#x421;&#x433;&#x440;&#x443;&#x43f;&#x43f;&#x438;&#x440;&#x43e;&#x432;&#x430;&#x442;&#x44c;_130" data-name="&#x421;&#x433;&#x440;&#x443;&#x43f;&#x43f;&#x438;&#x440;&#x43e;&#x432;&#x430;&#x442;&#x44c; 130" transform="translate(36.95 -200)">
      <circle id="&#x42d;&#x43b;&#x43b;&#x438;&#x43f;&#x441;_17" data-name="&#x42d;&#x43b;&#x43b;&#x438;&#x43f;&#x441; 17" cx="2.017" cy="2.017" r="2.017" transform="translate(1158.436 1390.742)" fill="none" stroke="currentColor" stroke-width="0.8"/>
      <circle id="&#x42d;&#x43b;&#x43b;&#x438;&#x43f;&#x441;_18" data-name="&#x42d;&#x43b;&#x43b;&#x438;&#x43f;&#x441; 18" cx="2.017" cy="2.017" r="2.017" transform="translate(1147.147 1390.742)" fill="none" stroke="currentColor" stroke-width="0.8"/>
      <path id="&#x41a;&#x43e;&#x43d;&#x442;&#x443;&#x440;_126" data-name="&#x41a;&#x43e;&#x43d;&#x442;&#x443;&#x440; 126" d="M16.685,31.184V28.436a.769.769,0,0,1,1.538,0v2.748a13.77,13.77,0,0,0,0-27.5V6.432a.769.769,0,0,1-1.538,0V3.684a13.77,13.77,0,0,0,0,27.5ZM23.1,13.921a3.515,3.515,0,1,1-3.514,3.514A3.515,3.515,0,0,1,23.1,13.921Zm-11.29,0a3.515,3.515,0,1,1-3.515,3.514,3.515,3.515,0,0,1,3.515-3.514Z" transform="translate(1137.355 1375.325)" fill="none" stroke="currentColor" stroke-width="0.8"/>
      <path id="&#x41a;&#x43e;&#x43d;&#x442;&#x443;&#x440;_127" data-name="&#x41a;&#x43e;&#x43d;&#x442;&#x443;&#x440; 127" d="M.956,33.6a3.887,3.887,0,0,0,3.876,3.877H33.6A3.889,3.889,0,0,0,37.479,33.6V4.832A3.887,3.887,0,0,0,33.6.956H4.832A3.886,3.886,0,0,0,.956,4.832Zm33.3,1.556a5.952,5.952,0,1,0,0-.007Zm0-31.869a.893.893,0,1,1,0-.007Zm-15.042.64A15.288,15.288,0,1,1,3.929,19.217,15.288,15.288,0,0,1,19.217,3.929ZM4.17,3.282A1.194,1.194,0,1,1,2.977,4.476,1.194,1.194,0,0,1,4.17,3.282Zm0,29.481a1.194,1.194,0,1,1-1.194,1.194A1.194,1.194,0,0,1,4.17,32.764Z" transform="translate(1135.592 1373.542)" fill="none" stroke="currentColor" stroke-width="0.8"/>
      <path id="&#x41a;&#x43e;&#x43d;&#x442;&#x443;&#x440;_128" data-name="&#x41a;&#x43e;&#x43d;&#x442;&#x443;&#x440; 128" d="M34.194.05H5.424A5.385,5.385,0,0,0,.05,5.424v28.77a5.385,5.385,0,0,0,5.374,5.374h28.77a5.387,5.387,0,0,0,5.374-5.374V5.424A5.385,5.385,0,0,0,34.194.05Zm-28.77,1.5h28.77a3.887,3.887,0,0,1,3.877,3.876v28.77a3.889,3.889,0,0,1-3.877,3.877H5.424a3.887,3.887,0,0,1-3.876-3.877V5.424A3.886,3.886,0,0,1,5.424,1.548Z" transform="translate(1135 1372.95)" fill="currentColor" stroke="currentColor" stroke-width="0.8"/>
      <path id="&#x41a;&#x43e;&#x43d;&#x442;&#x443;&#x440;_129" data-name="&#x41a;&#x43e;&#x43d;&#x442;&#x443;&#x440; 129" d="M18.042,33.33A15.288,15.288,0,1,0,2.754,18.042,15.288,15.288,0,0,0,18.042,33.33ZM17.273,4.292V7.04a.769.769,0,0,0,1.538,0V4.292a13.77,13.77,0,0,1,0,27.5V29.044a.769.769,0,0,0-1.538,0v2.748a13.77,13.77,0,0,1,0-27.5Z" transform="translate(1136.767 1374.717)" fill="currentColor" stroke="currentColor" stroke-width="0.8"/>
      <path id="&#x41a;&#x43e;&#x43d;&#x442;&#x443;&#x440;_130" data-name="&#x41a;&#x43e;&#x43d;&#x442;&#x443;&#x440; 130" d="M9.975,16.9A3.515,3.515,0,1,0,6.46,13.389,3.515,3.515,0,0,0,9.975,16.9Zm0-5.532a2.017,2.017,0,1,1-2.017,2.017A2.017,2.017,0,0,1,9.975,11.372Z" transform="translate(1139.189 1379.37)" fill="currentColor" stroke="currentColor" stroke-width="0.8"/>
      <path id="&#x41a;&#x43e;&#x43d;&#x442;&#x443;&#x440;_131" data-name="&#x41a;&#x43e;&#x43d;&#x442;&#x443;&#x440; 131" d="M16.8,16.9a3.515,3.515,0,1,0-3.514-3.515A3.515,3.515,0,0,0,16.8,16.9Zm0-5.532a2.017,2.017,0,1,1-2.017,2.017A2.017,2.017,0,0,1,16.8,11.372Z" transform="translate(1143.651 1379.37)" fill="currentColor" stroke="currentColor" stroke-width="0.8"/>
      <path id="&#x41a;&#x43e;&#x43d;&#x442;&#x443;&#x440;_132" data-name="&#x41a;&#x43e;&#x43d;&#x442;&#x443;&#x440; 132" d="M3.372,4.75A1.192,1.192,0,1,0,2.528,4.4,1.194,1.194,0,0,0,3.372,4.75Z" transform="translate(1136.39 1374.461)" fill="currentColor" stroke="currentColor" stroke-width="0.8"/>
      <circle id="&#x42d;&#x43b;&#x43b;&#x438;&#x43f;&#x441;_19" data-name="&#x42d;&#x43b;&#x43b;&#x438;&#x43f;&#x441; 19" cx="1.194" cy="1.194" r="1.194" transform="translate(1168.657 1376.825)" fill="currentColor" stroke="currentColor" stroke-width="0.8"/>
      <path id="&#x41a;&#x43e;&#x43d;&#x442;&#x443;&#x440;_133" data-name="&#x41a;&#x43e;&#x43d;&#x442;&#x443;&#x440; 133" d="M21.572,20.193a1.194,1.194,0,1,0,1.194,1.194A1.194,1.194,0,0,0,21.572,20.193Z" transform="translate(1148.284 1386.113)" fill="currentColor" stroke="currentColor" stroke-width="0.8"/>
      <path id="&#x41a;&#x43e;&#x43d;&#x442;&#x443;&#x440;_134" data-name="&#x41a;&#x43e;&#x43d;&#x442;&#x443;&#x440; 134" d="M3.372,22.581a1.194,1.194,0,1,0-1.194-1.194,1.194,1.194,0,0,0,1.194,1.194Z" transform="translate(1136.39 1386.113)" fill="currentColor" stroke="currentColor" stroke-width="0.8"/>
    </g>
    <g id="&#x421;&#x433;&#x440;&#x443;&#x43f;&#x43f;&#x438;&#x440;&#x43e;&#x432;&#x430;&#x442;&#x44c;_131" data-name="&#x421;&#x433;&#x440;&#x443;&#x43f;&#x43f;&#x438;&#x440;&#x43e;&#x432;&#x430;&#x442;&#x44c; 131" transform="translate(-0.188 0.002)">
      <path id="&#x41a;&#x43e;&#x43d;&#x442;&#x443;&#x440;_135" data-name="&#x41a;&#x43e;&#x43d;&#x442;&#x443;&#x440; 135" d="M14.657,87.993A8.993,8.993,0,0,1,5.668,79,1.035,1.035,0,0,0,3.6,79,11.063,11.063,0,0,0,14.657,90.062a1.035,1.035,0,1,0,0-2.069Z" transform="translate(1157.589 1135.469)" fill="currentColor" fill-rule="evenodd"/>
      <path id="&#x41a;&#x43e;&#x43d;&#x442;&#x443;&#x440;_136" data-name="&#x41a;&#x43e;&#x43d;&#x442;&#x443;&#x440; 136" d="M75.9,2.569a8.993,8.993,0,0,1,8.989,8.989,1.035,1.035,0,0,0,2.069,0A11.063,11.063,0,0,0,75.9.5a1.035,1.035,0,1,0,0,2.069Z" transform="translate(1135.481 1159.498)" fill="currentColor" fill-rule="evenodd"/>
      <path id="&#x41a;&#x43e;&#x43d;&#x442;&#x443;&#x440;_137" data-name="&#x41a;&#x43e;&#x43d;&#x442;&#x443;&#x440; 137" d="M17.282,82.155A3.153,3.153,0,0,1,14.131,79a1.035,1.035,0,0,0-2.069,0,5.223,5.223,0,0,0,5.22,5.22,1.035,1.035,0,1,0,0-2.069Z" transform="translate(1154.964 1135.469)" fill="currentColor" fill-rule="evenodd"/>
      <path id="&#x41a;&#x43e;&#x43d;&#x442;&#x443;&#x440;_138" data-name="&#x41a;&#x43e;&#x43d;&#x442;&#x443;&#x440; 138" d="M75.9,11.032a3.153,3.153,0,0,1,3.151,3.151,1.035,1.035,0,0,0,2.069,0,5.223,5.223,0,0,0-5.22-5.22,1.035,1.035,0,1,0,0,2.069Z" transform="translate(1135.481 1156.873)" fill="currentColor" fill-rule="evenodd"/>
    </g>
  </g>
</symbol><symbol id="picture-14" viewBox="0 0 58.353 59.396">
  <path id="&#x41a;&#x43e;&#x43d;&#x442;&#x443;&#x440;_125" data-name="&#x41a;&#x43e;&#x43d;&#x442;&#x443;&#x440; 125" d="M61.824,8.936h0L59.086,6.254a4.4,4.4,0,0,0-6.216.065l-9.8,10-1.168.483A2.568,2.568,0,0,0,40.832,21.1l1.347,1.319L30.2,34.653l-3.279.915a.667.667,0,0,0-.468.478l-.946,3.682a.668.668,0,0,0,.18.644l2.715,2.66a.668.668,0,0,0,.468.191.686.686,0,0,0,.18-.025l3.661-1.021a.67.67,0,0,0,.468-.478l.847-3.3L46.008,26.166l1.347,1.32a2.5,2.5,0,0,0,1.77.739,2.667,2.667,0,0,0,.714-.1,2.507,2.507,0,0,0,1.791-1.793l.458-1.176,9.8-10.005a4.4,4.4,0,0,0-.066-6.215ZM32.943,37.593a.671.671,0,0,0-.17.3l-.8,3.1-2.92.814-2.163-2.119.754-2.933,3.08-.859a.669.669,0,0,0,.3-.176L43.139,23.356l1.915,1.875ZM60.932,14.214l-9.9,10.105a.672.672,0,0,0-.145.225l-.519,1.338a.755.755,0,0,0-.025.077,1.23,1.23,0,0,1-2.052.572l-1.825-1.788h0l-4.694-4.6a1.233,1.233,0,0,1,.53-2.063.618.618,0,0,0,.076-.027l1.328-.549a.661.661,0,0,0,.222-.15l9.895-10.1a3.061,3.061,0,0,1,4.325-.047l2.738,2.682h0a3.062,3.062,0,0,1,.044,4.325Zm-36.9,30.848c-3.912-3.828-9.21-6.74-11.325-4.581L9.7,43.551c-.954.973-.908,2.725.124,4.941.05.107.1.215.157.324l-3.928,4a.669.669,0,0,0,.01.945l9.634,9.44a.672.672,0,0,0,.468.191h.007a.669.669,0,0,0,.47-.2l3.928-4.009c.109.052.217.1.324.15a7.559,7.559,0,0,0,2.97.747,2.655,2.655,0,0,0,1.972-.724l3.007-3.069c.954-.973.908-2.725-.124-4.942a22.861,22.861,0,0,0-4.687-6.287Zm-9.356-3.979c1.784,0,5.164,1.745,8.42,4.931a21.508,21.508,0,0,1,4.412,5.9c.758,1.622.9,2.909.38,3.439-1.1,1.117-5.362-.613-9.434-4.6a21.508,21.508,0,0,1-4.412-5.9c-.758-1.622-.9-2.909-.38-3.439A1.379,1.379,0,0,1,14.673,41.084Zm1.479,20.7-8.678-8.5,3.179-3.248a27,27,0,0,0,8.678,8.5Zm8.728-3.358c-.519.531-1.808.415-3.447-.31a21.521,21.521,0,0,1-5.987-4.292,21.5,21.5,0,0,1-4.412-5.9c-.759-1.622-.9-2.909-.38-3.439L12.07,43.04a8.545,8.545,0,0,0,.759,2.384,22.846,22.846,0,0,0,4.689,6.287c2.769,2.714,6.229,4.961,8.77,5.278ZM16.5,45.123a.669.669,0,0,1,.937-.954l3.326,3.27.792-.808a.668.668,0,1,1,.955.933l-.793.812,3.327,3.272a.669.669,0,0,1-.938.954l-3.326-3.27-.792.808a.669.669,0,0,1-.955-.936l.794-.81ZM19.4,36.588c-1.189-2.546-1.248-4.557-.167-5.661,1.271-1.3,3.813-1.026,6.952.689l-.34-1.233a.668.668,0,1,1,1.289-.356l.784,2.841,0,.017c0,.012.006.025.008.037l0,.03a.309.309,0,0,1,0,.034v.13l0,.03a.154.154,0,0,1-.006.034l-.006.029a.354.354,0,0,1-.01.035l-.009.027a.316.316,0,0,1-.014.034l-.012.027c-.005.011-.01.021-.016.032l-.016.028-.01.018-.007.01-.02.028-.019.025-.022.025-.023.024-.024.022-.025.021-.026.019-.027.019-.027.017-.029.016-.029.014-.031.014-.029.01-.034.012-.011,0-2.842.784a.679.679,0,0,1-.178.024.669.669,0,0,1-.178-1.313l1.337-.369c-2.512-1.379-4.6-1.773-5.4-.954-1.324,1.351.658,6.243,5.618,11.1.709.695,1.445,1.353,2.188,1.957a.669.669,0,1,1-.844,1.038c-.774-.63-1.541-1.316-2.279-2.039a26.668,26.668,0,0,1-5.47-7.334Zm16.848,4.332c2.545,3.749,3.192,6.878,1.73,8.37a3,3,0,0,1-2.229.816,7.287,7.287,0,0,1-2.206-.394l.642,1.237a.669.669,0,1,1-1.187.616l-1.358-2.617a.668.668,0,0,1,.285-.9l2.616-1.358a.668.668,0,1,1,.616,1.187l-1.129.584c1.4.44,2.484.412,2.994-.108.938-.958.182-3.644-1.882-6.683a.669.669,0,1,1,1.1-.751Z" transform="translate(-5.289 -4.501)" fill="currentColor" stroke="currentColor" stroke-width="1"/>
</symbol><symbol id="picture-15" viewBox="0 0 66.5 66.5">
  <g id="&#x421;&#x433;&#x440;&#x443;&#x43f;&#x43f;&#x438;&#x440;&#x43e;&#x432;&#x430;&#x442;&#x44c;_143" data-name="&#x421;&#x433;&#x440;&#x443;&#x43f;&#x43f;&#x438;&#x440;&#x43e;&#x432;&#x430;&#x442;&#x44c; 143" transform="translate(0.25 0.25)">
    <path id="&#x41a;&#x43e;&#x43d;&#x442;&#x443;&#x440;_139" data-name="&#x41a;&#x43e;&#x43d;&#x442;&#x443;&#x440; 139" d="M57.826,2.874A54.392,54.392,0,0,0,39.387,0,54.392,54.392,0,0,0,20.948,2.874c-5.271,1.977-8.174,4.736-8.174,7.771v21.29a6.048,6.048,0,0,0,2.282,4.44c-2.892,1.775-4.411,3.9-4.411,6.205V53.226H0V56.86l1.4,1.4-1.4.7V66H19.956a3.467,3.467,0,0,0,3.461-3.384,52.877,52.877,0,0,0,11.712,1.255,46.254,46.254,0,0,0,16.963-2.885c4.85-1.984,7.521-4.74,7.521-7.76V42.581a5.562,5.562,0,0,0-1.036-3.168C63.371,37.46,66,34.823,66,31.935V10.645C66,7.61,63.1,4.85,57.826,2.874ZM21.7,4.867A52.251,52.251,0,0,1,39.387,2.129,52.251,52.251,0,0,1,57.079,4.867c4.317,1.619,6.792,3.725,6.792,5.778S61.4,14.8,57.079,16.423a52.251,52.251,0,0,1-17.692,2.738A52.251,52.251,0,0,1,21.7,16.423C17.379,14.8,14.9,12.7,14.9,10.645S17.379,6.486,21.7,4.867ZM14.9,14.945a18,18,0,0,0,6.045,3.472A54.4,54.4,0,0,0,39.387,21.29a65.568,65.568,0,0,0,9.581-.683v4.535l1.4.7-1.4,1.4v12.51a63.186,63.186,0,0,1-9.581.705A52.25,52.25,0,0,1,21.7,37.713c-4.317-1.619-6.792-3.725-6.792-5.778ZM42.581,42.581c0,.618-2.611,2.129-7.452,2.129s-7.452-1.511-7.452-2.129c0-.156.257-.5.942-.873a64.456,64.456,0,0,0,10.767.873q1.605,0,3.178-.072A.216.216,0,0,1,42.581,42.581ZM21.29,62.537a1.336,1.336,0,0,1-1.334,1.334H2.129v-3.6L4.991,58.84,2.129,55.979v-.624H19.956a3.443,3.443,0,0,0,1.334-.267Zm-1.334-9.311H12.774v-6.19a11.006,11.006,0,0,0,.89.784,12.467,12.467,0,0,0,4.655,2.273l1.969.507a1.334,1.334,0,0,1-.332,2.626Zm31.33,5.789a44.108,44.108,0,0,1-16.157,2.727,50.219,50.219,0,0,1-11.71-1.313V52.161h-.01c0-.053,0-.108.006-.162a49.075,49.075,0,0,0,11.714,1.227A46.254,46.254,0,0,0,52.092,50.34a16.774,16.774,0,0,0,5.392-3.3v6.19C57.484,55.294,55.225,57.4,51.286,59.015Zm0-10.645A44.108,44.108,0,0,1,35.129,51.1a44.688,44.688,0,0,1-12.615-1.54,3.456,3.456,0,0,0-1.695-1.019l-1.969-.507a10.354,10.354,0,0,1-3.867-1.883c-1.008-.8-2.209-2.06-2.209-3.567,0-1.668,1.464-3.366,4.137-4.819a22.525,22.525,0,0,0,4.037,1.945A38.784,38.784,0,0,0,26,41.19a2.437,2.437,0,0,0-.447,1.391c0,2.8,4.82,4.258,9.581,4.258s9.581-1.463,9.581-4.258c0-.064,0-.132-.01-.2a51.318,51.318,0,0,0,11.787-2.2,3.779,3.779,0,0,1,1,2.406C57.484,44.648,55.225,46.758,51.286,48.37Zm5.793-10.657A38.442,38.442,0,0,1,51.1,39.372V28.118l2.862-2.862L51.1,23.826V20.249a41.112,41.112,0,0,0,6.729-1.832,18,18,0,0,0,6.045-3.472V31.935C63.871,33.989,61.4,36.095,57.079,37.713Z" stroke="currentColor" stroke-width="0.5"/>
    <path id="&#x41a;&#x43e;&#x43d;&#x442;&#x443;&#x440;_140" data-name="&#x41a;&#x43e;&#x43d;&#x442;&#x443;&#x440; 140" d="M233.581,56.516c4.761,0,9.581-1.463,9.581-4.258S238.342,48,233.581,48,224,49.463,224,52.258,228.82,56.516,233.581,56.516Zm0-6.387c4.84,0,7.452,1.511,7.452,2.129s-2.611,2.129-7.452,2.129-7.452-1.511-7.452-2.129S228.74,50.129,233.581,50.129Z" transform="translate(-194.194 -41.613)" stroke="currentColor" stroke-width="0.5"/>
    <path id="&#x41a;&#x43e;&#x43d;&#x442;&#x443;&#x440;_141" data-name="&#x41a;&#x43e;&#x43d;&#x442;&#x443;&#x440; 141" d="M192.535,260.283c-.713-.152-1.41-.32-2.072-.5l-.557,2.055c.7.19,1.435.367,2.186.527Z" transform="translate(-164.636 -225.215)" stroke="currentColor" stroke-width="0.5"/>
    <path id="&#x41a;&#x43e;&#x43d;&#x442;&#x443;&#x440;_142" data-name="&#x41a;&#x43e;&#x43d;&#x442;&#x443;&#x440; 142" d="M134.038,195.463l.7-2.011a12.274,12.274,0,0,1-4.607-2.445V184H128v7.6l.113.225C128.576,192.751,130.376,194.191,134.038,195.463Z" transform="translate(-110.968 -159.516)" stroke="currentColor" stroke-width="0.5"/>
  </g>
</symbol><symbol id="picture-16" viewBox="0 0 52.768 66.8">
  <path id="&#x41a;&#x43e;&#x43d;&#x442;&#x443;&#x440;_144" data-name="&#x41a;&#x43e;&#x43d;&#x442;&#x443;&#x440; 144" d="M43.178,67.3a.908.908,0,0,1-.653-.278.9.9,0,0,1-.217-.877l1.613-5.55a.9.9,0,0,1,.653-.623.91.91,0,0,1,.863.248l1.41,1.47,10.343-8.183L46.26,45.443A.9.9,0,0,1,47.333,44l11.88,8.76a.9.9,0,0,1,.023,1.433l-11.13,8.805,1.335,1.4a.9.9,0,0,1-.435,1.5l-5.61,1.38a1.018,1.018,0,0,1-.218.022Zm2.04-4.7-.743,2.55,2.58-.638-1.838-1.92ZM71.1,66.113H65.565a.9.9,0,0,1-.9-.9c0-.525-.3-.795-1.028-1.335a3.03,3.03,0,0,1,0-5.49c.735-.54,1.028-.81,1.028-1.335s-.3-.795-1.028-1.335a3.03,3.03,0,0,1,0-5.49c.735-.54,1.028-.81,1.028-1.335s-.3-.8-1.028-1.335a3.03,3.03,0,0,1,0-5.49c.735-.54,1.028-.81,1.028-1.335s-.3-.8-1.028-1.335a3.352,3.352,0,0,1-1.748-2.745,3.352,3.352,0,0,1,1.748-2.745c.735-.54,1.028-.81,1.028-1.335s-.3-.8-1.028-1.335a3.352,3.352,0,0,1-1.748-2.745,3.352,3.352,0,0,1,1.748-2.745c.735-.54,1.028-.81,1.028-1.335s-.3-.8-1.028-1.335a3.352,3.352,0,0,1-1.748-2.745,3.352,3.352,0,0,1,1.748-2.745c.66-.488.967-.75,1.02-1.185a1.232,1.232,0,0,1-.015-.173.9.9,0,0,1,.9-.9.949.949,0,0,1,.21.023H71.1a.9.9,0,0,1,.9.9v48.96a.9.9,0,0,1-.9.9Zm-4.778-1.8H70.2V17.2H66.323A4,4,0,0,1,64.7,19.08c-.72.525-1.012.8-1.012,1.29s.292.765,1.012,1.29a3.4,3.4,0,0,1,1.77,2.783A3.392,3.392,0,0,1,64.7,27.225c-.72.525-1.013.8-1.013,1.29s.292.765,1.013,1.29a3.4,3.4,0,0,1,1.77,2.783A3.392,3.392,0,0,1,64.71,35.37c-.72.525-1.012.8-1.012,1.29s.292.765,1.012,1.29a3.075,3.075,0,0,1,.007,5.565c-.72.525-1.013.8-1.013,1.3s.292.765,1.013,1.29a3.075,3.075,0,0,1,.007,5.565c-.72.525-1.012.8-1.012,1.29s.292.765,1.012,1.29a3.072,3.072,0,0,1,0,5.565c-.72.525-1.012.8-1.012,1.29s.292.765,1.012,1.29a4,4,0,0,1,1.628,1.882Zm-23.145-9.84a.909.909,0,0,1-.653-.278.9.9,0,0,1-.217-.878l1.613-5.55a.9.9,0,0,1,.653-.623.91.91,0,0,1,.863.248l1.41,1.47.975-.772a.9.9,0,0,1,1.118,1.417l-.84.668,1.335,1.4A.9.9,0,0,1,49,53.07l-5.61,1.38a1.018,1.018,0,0,1-.218.022Zm2.04-4.7-.743,2.558,2.58-.638Zm-23.7,1.11a1.722,1.722,0,0,1-.983-.3l-7.253-4.853H8.078A2.082,2.082,0,0,1,6,43.65V37.68A2.082,2.082,0,0,1,8.078,35.6h5.205l7.253-4.853a1.774,1.774,0,0,1,2.76,1.478V49.11a1.788,1.788,0,0,1-.938,1.568,1.737,1.737,0,0,1-.833.21ZM14.34,44.265,21.5,49.058V32.273L14.34,37.065v7.208Zm-6.54-3.6V43.65a.277.277,0,0,0,.278.278H12.54V37.41H8.078a.277.277,0,0,0-.278.277v2.985Zm25.433,8.67a.863.863,0,0,1-.525-.173l-4.83-3.473a.9.9,0,1,1,1.058-1.455l4.83,3.473a.9.9,0,0,1,.2,1.26.883.883,0,0,1-.728.375Zm19.275-2.9a.9.9,0,0,1-.7-.345.906.906,0,0,1,.15-1.268L57.2,40.68,42.48,29.828a.9.9,0,0,1,1.073-1.448l15.66,11.55a.9.9,0,0,1,.022,1.433L53.07,46.245a.91.91,0,0,1-.555.195Zm-9.33-4.793a.909.909,0,0,1-.653-.278.9.9,0,0,1-.217-.877l1.613-5.55a.9.9,0,0,1,.653-.623.91.91,0,0,1,.863.248l1.41,1.47.975-.773a.9.9,0,0,1,1.118,1.418l-.84.66,1.335,1.4a.9.9,0,0,1-.435,1.5l-5.61,1.38a1.018,1.018,0,0,1-.217.022Zm2.04-4.7L44.475,39.5l2.58-.638-1.838-1.92ZM33.233,41.558H28.4a.9.9,0,0,1,0-1.8h4.83a.9.9,0,1,1,0,1.8Zm-4.83-4.29a.883.883,0,0,1-.728-.375.9.9,0,0,1,.2-1.26l4.83-3.473a.9.9,0,0,1,1.058,1.463L28.935,37.1a.915.915,0,0,1-.525.172Zm24.1-3.653a.9.9,0,0,1-.705-.345A.906.906,0,0,1,51.945,32l5.243-4.148L42.473,17a.9.9,0,1,1,1.073-1.448l15.66,11.55a.9.9,0,0,1,.022,1.433L53.063,33.42a.91.91,0,0,1-.555.195Z" transform="translate(67.698 -5.6) rotate(90)" fill="currentColor" stroke="currentColor" stroke-width="0.8"/>
</symbol><symbol id="picture-2" viewBox="0 0 62.256 66.531">
  <g id="&#x421;&#x433;&#x440;&#x443;&#x43f;&#x43f;&#x438;&#x440;&#x43e;&#x432;&#x430;&#x442;&#x44c;_142" data-name="&#x421;&#x433;&#x440;&#x443;&#x43f;&#x43f;&#x438;&#x440;&#x43e;&#x432;&#x430;&#x442;&#x44c; 142" transform="translate(0.5 0.499)">
    <path id="&#x41a;&#x43e;&#x43d;&#x442;&#x443;&#x440;_119" data-name="&#x41a;&#x43e;&#x43d;&#x442;&#x443;&#x440; 119" d="M62.53,19.645A1.035,1.035,0,0,0,61.5,18.61H37.41a1.035,1.035,0,0,0-1.035,1.035V45.83a1.034,1.034,0,0,0,1.035,1.035H61.5A1.035,1.035,0,0,0,62.53,45.83ZM60.46,20.679V44.795H38.444V20.679Z" transform="translate(-13.766 -6.117)" fill="currentColor" stroke="currentColor" stroke-width="1" fill-rule="evenodd"/>
    <path id="&#x41a;&#x43e;&#x43d;&#x442;&#x443;&#x440;_120" data-name="&#x41a;&#x43e;&#x43d;&#x442;&#x443;&#x440; 120" d="M14.657,87.993A8.993,8.993,0,0,1,5.668,79,1.035,1.035,0,0,0,3.6,79,11.063,11.063,0,0,0,14.657,90.062a1.035,1.035,0,1,0,0-2.069Z" transform="translate(-3.599 -24.53)" fill="currentColor" stroke="currentColor" stroke-width="1" fill-rule="evenodd"/>
    <path id="&#x41a;&#x43e;&#x43d;&#x442;&#x443;&#x440;_121" data-name="&#x41a;&#x43e;&#x43d;&#x442;&#x443;&#x440; 121" d="M75.9,2.569a8.993,8.993,0,0,1,8.989,8.989,1.035,1.035,0,0,0,2.069,0A11.063,11.063,0,0,0,75.9.5a1.035,1.035,0,1,0,0,2.069Z" transform="translate(-25.707 -0.499)" fill="currentColor" stroke="currentColor" stroke-width="1" fill-rule="evenodd"/>
    <path id="&#x41a;&#x43e;&#x43d;&#x442;&#x443;&#x440;_122" data-name="&#x41a;&#x43e;&#x43d;&#x442;&#x443;&#x440; 122" d="M17.282,82.155A3.153,3.153,0,0,1,14.131,79a1.035,1.035,0,0,0-2.069,0,5.223,5.223,0,0,0,5.22,5.22,1.035,1.035,0,1,0,0-2.069Z" transform="translate(-6.224 -24.53)" fill="currentColor" stroke="currentColor" stroke-width="1" fill-rule="evenodd"/>
    <path id="&#x41a;&#x43e;&#x43d;&#x442;&#x443;&#x440;_123" data-name="&#x41a;&#x43e;&#x43d;&#x442;&#x443;&#x440; 123" d="M75.9,11.032a3.153,3.153,0,0,1,3.151,3.151,1.035,1.035,0,0,0,2.069,0,5.223,5.223,0,0,0-5.22-5.22,1.035,1.035,0,1,0,0,2.069Z" transform="translate(-25.707 -3.124)" fill="currentColor" stroke="currentColor" stroke-width="1" fill-rule="evenodd"/>
    <path id="&#x41a;&#x43e;&#x43d;&#x442;&#x443;&#x440;_124" data-name="&#x41a;&#x43e;&#x43d;&#x442;&#x443;&#x440; 124" d="M45.071,37.1a1.035,1.035,0,0,0-1.035-1.035H19.951A1.035,1.035,0,0,0,18.916,37.1V63.288a1.035,1.035,0,0,0,1.035,1.035H44.037a1.035,1.035,0,0,0,1.035-1.035ZM43,38.137V62.253H20.985V38.137Z" transform="translate(-8.35 -11.532)" fill="currentColor" stroke="currentColor" stroke-width="1" fill-rule="evenodd"/>
  </g>
</symbol><symbol id="picture-3" viewBox="0 0 62.62 66.808">
  <g id="&#x421;&#x433;&#x440;&#x443;&#x43f;&#x43f;&#x438;&#x440;&#x43e;&#x432;&#x430;&#x442;&#x44c;_134" data-name="&#x421;&#x433;&#x440;&#x443;&#x43f;&#x43f;&#x438;&#x440;&#x43e;&#x432;&#x430;&#x442;&#x44c; 134" transform="translate(-1147.599 -1341.592)">
    <path id="&#x41a;&#x43e;&#x43d;&#x442;&#x443;&#x440;_146" data-name="&#x41a;&#x43e;&#x43d;&#x442;&#x443;&#x440; 146" d="M43.178,67.3a.908.908,0,0,1-.653-.278.9.9,0,0,1-.217-.877l1.613-5.55a.9.9,0,0,1,.653-.623.91.91,0,0,1,.863.248l1.41,1.47,10.343-8.183L46.26,45.443A.9.9,0,0,1,47.333,44l11.88,8.76a.9.9,0,0,1,.023,1.433l-11.13,8.805,1.335,1.4a.9.9,0,0,1-.435,1.5l-5.61,1.38a1.018,1.018,0,0,1-.218.022Zm2.04-4.7-.743,2.55,2.58-.638-1.838-1.92Z" transform="translate(1231.817 1299.729) rotate(90)" fill="currentColor" stroke="currentColor" stroke-width="0.8"/>
    <path id="&#x41a;&#x43e;&#x43d;&#x442;&#x443;&#x440;_147" data-name="&#x41a;&#x43e;&#x43d;&#x442;&#x443;&#x440; 147" d="M43.178,67.3a.908.908,0,0,1-.653-.278.9.9,0,0,1-.217-.877l1.613-5.55a.9.9,0,0,1,.653-.623.91.91,0,0,1,.863.248l1.41,1.47,10.343-8.183L46.26,45.443A.9.9,0,0,1,47.333,44l11.88,8.76a.9.9,0,0,1,.023,1.433l-11.13,8.805,1.335,1.4a.9.9,0,0,1-.435,1.5l-5.61,1.38a1.018,1.018,0,0,1-.218.022Zm2.04-4.7-.743,2.55,2.58-.638-1.838-1.92Z" transform="translate(1215.297 1308.383) rotate(90)" fill="currentColor" stroke="currentColor" stroke-width="0.8"/>
    <path id="&#x41a;&#x43e;&#x43d;&#x442;&#x443;&#x440;_148" data-name="&#x41a;&#x43e;&#x43d;&#x442;&#x443;&#x440; 148" d="M43.178,67.3a.908.908,0,0,1-.653-.278.9.9,0,0,1-.217-.877l1.613-5.55a.9.9,0,0,1,.653-.623.91.91,0,0,1,.863.248l1.41,1.47,10.343-8.183L46.26,45.443A.9.9,0,0,1,47.333,44l11.88,8.76a.9.9,0,0,1,.023,1.433l-11.13,8.805,1.335,1.4a.9.9,0,0,1-.435,1.5l-5.61,1.38a1.018,1.018,0,0,1-.218.022Zm2.04-4.7-.743,2.55,2.58-.638-1.838-1.92Z" transform="translate(1253.635 1308.383) rotate(90)" fill="currentColor" stroke="currentColor" stroke-width="0.8"/>
    <path id="&#x41a;&#x43e;&#x43d;&#x442;&#x443;&#x440;_145" data-name="&#x41a;&#x43e;&#x43d;&#x442;&#x443;&#x440; 145" d="M9.469,55.026q29.68,14.248,29.94,14.282c.3,0,.05.066,29.94-14.282a.833.833,0,0,0,0-1.5l-11.6-5.573,11.6-5.568a.829.829,0,0,0,0-1.493L57.744,35.32l11.606-5.573a.833.833,0,0,0,0-1.5L39.769,14.05c-.558-.271-.133-.282-30.3,14.2a.833.833,0,0,0,0,1.5L21.075,35.32,9.469,40.894a.827.827,0,0,0,0,1.493l11.6,5.568-11.6,5.573a.833.833,0,0,0,0,1.5ZM11.747,29,39.409,15.714,67.071,29,39.409,42.282,11.747,29Zm0,12.645,11.246-5.4,16.062,7.713a.82.82,0,0,0,.719,0l16.056-7.713,11.246,5.407L39.409,54.927,11.742,41.646Zm11.241,7.238L39.05,56.585a.82.82,0,0,0,.719,0l16.062-7.708,11.241,5.4L39.4,67.555,11.742,54.28l11.241-5.4Z" transform="translate(1139 1338.692)" fill="currentColor" stroke="currentColor" stroke-width="0.8"/>
  </g>
</symbol><symbol id="picture-4" viewBox="0 0 66.596 67">
  <g id="&#x421;&#x433;&#x440;&#x443;&#x43f;&#x43f;&#x438;&#x440;&#x43e;&#x432;&#x430;&#x442;&#x44c;_144" data-name="&#x421;&#x433;&#x440;&#x443;&#x43f;&#x43f;&#x438;&#x440;&#x43e;&#x432;&#x430;&#x442;&#x44c; 144" transform="translate(0.5 0.5)">
    <path id="&#x41a;&#x43e;&#x43d;&#x442;&#x443;&#x440;_164" data-name="&#x41a;&#x43e;&#x43d;&#x442;&#x443;&#x440; 164" d="M143.469,239.124h22.794a4.462,4.462,0,0,0,3.469-1.3,4.216,4.216,0,0,0,.985-2.969V213.406a6.992,6.992,0,0,0-4.216-6.6,11.951,11.951,0,0,0-4.069-1.113c-.26-.035-3.17-.486-3.17-3.018v-3.578a.675.675,0,0,0-.675-.675h-7.5a.675.675,0,0,0-.675.675v3.745c0,2.724-2.941,2.844-3.067,2.848h-.019a11.9,11.9,0,0,0-4.1,1.115,6.994,6.994,0,0,0-4.216,6.6v21.441a4.2,4.2,0,0,0,.985,2.969A4.446,4.446,0,0,0,143.469,239.124Zm14.442-39.354v2.9c0,3.04,2.863,4.184,4.376,4.36h.039c.287.018,7.041.5,7.041,6.369v21.46a.559.559,0,0,0,0,.067,2.892,2.892,0,0,1-.648,1.984,3.207,3.207,0,0,1-2.46.852h-22.79A3.186,3.186,0,0,1,141,236.9a2.881,2.881,0,0,1-.64-1.975.559.559,0,0,0,0-.067V213.4a5.646,5.646,0,0,1,3.459-5.388,10.64,10.64,0,0,1,3.574-.981c1.517-.05,4.364-.989,4.364-4.2V199.77Zm4.454,6.593Z" transform="translate(-122.271 -173.124)" fill="currentColor" stroke="currentColor" stroke-width="1"/>
    <path id="&#x41a;&#x43e;&#x43d;&#x442;&#x443;&#x440;_165" data-name="&#x41a;&#x43e;&#x43d;&#x442;&#x443;&#x440; 165" d="M219.675,129.828h8.638a.675.675,0,0,0,.675-.675v-6.479a.675.675,0,0,0-.675-.675h-8.638a.675.675,0,0,0-.675.675v6.479A.675.675,0,0,0,219.675,129.828Zm7.963-1.35H220.35V123.35h7.288Z" transform="translate(-191.331 -107.018)" fill="currentColor" stroke="currentColor" stroke-width="1"/>
    <path id="&#x41a;&#x43e;&#x43d;&#x442;&#x443;&#x440;_166" data-name="&#x41a;&#x43e;&#x43d;&#x442;&#x443;&#x440; 166" d="M236.175,175.834a.675.675,0,0,0,.675-.675v-3.735a.675.675,0,1,0-1.35,0v3.735A.675.675,0,0,0,236.175,175.834Z" transform="translate(-201.42 -149.189)" fill="currentColor" stroke="currentColor" stroke-width="1"/>
    <path id="&#x41a;&#x43e;&#x43d;&#x442;&#x443;&#x440;_167" data-name="&#x41a;&#x43e;&#x43d;&#x442;&#x443;&#x440; 167" d="M268.175,175.834a.675.675,0,0,0,.675-.675v-3.735a.675.675,0,1,0-1.35,0v3.735A.675.675,0,0,0,268.175,175.834Z" transform="translate(-237.739 -149.189)" fill="currentColor" stroke="currentColor" stroke-width="1"/>
    <path id="&#x41a;&#x43e;&#x43d;&#x442;&#x443;&#x440;_168" data-name="&#x41a;&#x43e;&#x43d;&#x442;&#x443;&#x440; 168" d="M236.175,97.834a.675.675,0,0,0,.675-.675V93.425a.675.675,0,1,0-1.35,0v3.735A.675.675,0,0,0,236.175,97.834Z" transform="translate(-201.42 -81.716)" fill="currentColor" stroke="currentColor" stroke-width="1"/>
    <path id="&#x41a;&#x43e;&#x43d;&#x442;&#x443;&#x440;_169" data-name="&#x41a;&#x43e;&#x43d;&#x442;&#x443;&#x440; 169" d="M268.175,97.834a.675.675,0,0,0,.675-.675V93.425a.675.675,0,0,0-1.35,0v3.735A.675.675,0,0,0,268.175,97.834Z" transform="translate(-237.739 -81.716)" fill="currentColor" stroke="currentColor" stroke-width="1"/>
    <path id="&#x41a;&#x43e;&#x43d;&#x442;&#x443;&#x440;_170" data-name="&#x41a;&#x43e;&#x43d;&#x442;&#x443;&#x440; 170" d="M210.914,50.828h10.8a3.914,3.914,0,1,0,0-7.828h-10.8a3.914,3.914,0,1,0,0,7.828Zm10.8-6.479a2.564,2.564,0,1,1,0,5.129h-10.8a2.564,2.564,0,1,1,0-5.129Z" transform="translate(-186.35 -38.681)" fill="currentColor" stroke="currentColor" stroke-width="1"/>
    <path id="&#x41a;&#x43e;&#x43d;&#x442;&#x443;&#x440;_171" data-name="&#x41a;&#x43e;&#x43d;&#x442;&#x443;&#x440; 171" d="M242.47,55.84h5.608a2.756,2.756,0,0,0,2.108-.81,2.933,2.933,0,0,0,.726-2.039V46.312c.829-.321,2.7-1.033,4.1-1.431a2.75,2.75,0,0,0,2.245-2.7,2.61,2.61,0,0,0-.822-2.054,2.825,2.825,0,0,0-2.048-.618h-2.124c-1.169,0-1.331-1.406-1.35-1.644V35.324a1.372,1.372,0,0,1,1.485-1.35h8.619a2.636,2.636,0,0,0,1.841-.644,2.507,2.507,0,0,0,.742-1.921.39.39,0,0,0,0-.081.9.9,0,0,1,.251-.622,3.047,3.047,0,0,1,2.317-.647.675.675,0,1,0,0-1.35,4.279,4.279,0,0,0-3.351,1.128,2.226,2.226,0,0,0-.567,1.6,1.2,1.2,0,0,1-.313.9,1.34,1.34,0,0,1-.853.283H252.4a2.7,2.7,0,0,0-2.834,2.7V37.89a.349.349,0,0,0,0,.039c.059,1.014.7,2.93,2.7,2.93h2.16a.581.581,0,0,0,.084,0,1.525,1.525,0,0,1,1.041.29,1.35,1.35,0,0,1,.36,1.058.306.306,0,0,0,0,.061c0,.085.012.945-1.267,1.315-1.9.54-4.543,1.6-4.655,1.643a.675.675,0,0,0-.421.626v7.2a1.605,1.605,0,0,1-.367,1.064,1.491,1.491,0,0,1-1.119.379H242.5a1.623,1.623,0,0,1-1.064-.367A1.491,1.491,0,0,1,241.058,53c0-2.17,2.041-15.638,2.147-16.331a5.146,5.146,0,0,0-.588-3.942,3.077,3.077,0,0,0-2.1-1.136V26.416h6.345a2.571,2.571,0,0,0,2.7-2.564v-2a1.563,1.563,0,0,1,1.62-1.51h18.379a4.016,4.016,0,0,1,2.552.856,2.25,2.25,0,0,1,.641,1.709.675.675,0,0,0,1.35,0,3.58,3.58,0,0,0-1.057-2.685,5.311,5.311,0,0,0-3.519-1.23H251.182a2.9,2.9,0,0,0-2.969,2.793v2.066a1.225,1.225,0,0,1-1.35,1.215h-7.018a.675.675,0,0,0-.675.675V32.22a.675.675,0,0,0,.675.675,2.023,2.023,0,0,1,1.707.66,3.815,3.815,0,0,1,.337,2.822.442.442,0,0,0-.012.061c-.089.58-2.168,14.249-2.168,16.567a2.756,2.756,0,0,0,.81,2.108A2.916,2.916,0,0,0,242.47,55.84Z" transform="translate(-239.17 -17.913)" fill="currentColor" stroke="currentColor" stroke-width="1"/>
    <path id="&#x41a;&#x43e;&#x43d;&#x442;&#x443;&#x440;_172" data-name="&#x41a;&#x43e;&#x43d;&#x442;&#x443;&#x440; 172" d="M421.675,39.35h2.834a.675.675,0,1,0,0-1.35h-2.834a.675.675,0,1,0,0,1.35Z" transform="translate(-414.792 -34.356)" fill="currentColor" stroke="currentColor" stroke-width="1"/>
    <path id="&#x41a;&#x43e;&#x43d;&#x442;&#x443;&#x440;_173" data-name="&#x41a;&#x43e;&#x43d;&#x442;&#x443;&#x440; 173" d="M442.675,32.049a.675.675,0,0,0,.675-.675v-2.7a.675.675,0,0,0-1.35,0v2.7A.675.675,0,0,0,442.675,32.049Z" transform="translate(-435.792 -25.706)" fill="currentColor" stroke="currentColor" stroke-width="1"/>
    <path id="&#x41a;&#x43e;&#x43d;&#x442;&#x443;&#x440;_174" data-name="&#x41a;&#x43e;&#x43d;&#x442;&#x443;&#x440; 174" d="M318.913,133.482a.657.657,0,0,0,.287-.065l2.294-1.08a.675.675,0,0,0,.29-.96c-2.558-4.219-2.07-10.6-2.065-10.663a.677.677,0,0,0-1.35-.111c-.022.27-.48,6.284,1.89,10.82l-1.108.521a22.011,22.011,0,0,1-2.8-11.286.675.675,0,0,0-1.35,0c0,7.963,3.239,12.369,3.374,12.552A.675.675,0,0,0,318.913,133.482Z" transform="translate(-297.183 -105.274)" fill="currentColor" stroke="currentColor" stroke-width="1"/>
    <path id="&#x41a;&#x43e;&#x43d;&#x442;&#x443;&#x440;_175" data-name="&#x41a;&#x43e;&#x43d;&#x442;&#x443;&#x440; 175" d="M239.675,50.784a.675.675,0,0,0,.675-.675V43.675a.675.675,0,0,0-1.35,0v6.434A.675.675,0,0,0,239.675,50.784Z" transform="translate(-205.393 -38.681)" fill="currentColor" stroke="currentColor" stroke-width="1"/>
    <path id="&#x41a;&#x43e;&#x43d;&#x442;&#x443;&#x440;_176" data-name="&#x41a;&#x43e;&#x43d;&#x442;&#x443;&#x440; 176" d="M187.675,69.35h2.564a.675.675,0,1,0,0-1.35h-2.564a.675.675,0,1,0,0,1.35Z" transform="translate(-148.939 -60.307)" fill="currentColor" stroke="currentColor" stroke-width="1"/>
    <path id="&#x41a;&#x43e;&#x43d;&#x442;&#x443;&#x440;_177" data-name="&#x41a;&#x43e;&#x43d;&#x442;&#x443;&#x440; 177" d="M12.675,28.276A5.4,5.4,0,0,0,17.742,24.7a5.38,5.38,0,0,0,0-10.133A5.4,5.4,0,0,0,12.675,11a.675.675,0,1,0,0,1.35,4.049,4.049,0,0,1,3.88,2.941.675.675,0,0,0,.467.467,4.03,4.03,0,0,1,0,7.761.675.675,0,0,0-.467.467,4.049,4.049,0,0,1-3.88,2.941.675.675,0,1,0,0,1.35Z" transform="translate(44.282 -11)" fill="currentColor" stroke="currentColor" stroke-width="1"/>
    <path id="&#x41a;&#x43e;&#x43d;&#x442;&#x443;&#x440;_178" data-name="&#x41a;&#x43e;&#x43d;&#x442;&#x443;&#x440; 178" d="M443.675,157.35h3.509a.675.675,0,1,0,0-1.35h-3.509a.675.675,0,0,0,0,1.35Z" transform="translate(-440.436 -136.429)" fill="currentColor" stroke="currentColor" stroke-width="1"/>
    <path id="&#x41a;&#x43e;&#x43d;&#x442;&#x443;&#x440;_179" data-name="&#x41a;&#x43e;&#x43d;&#x442;&#x443;&#x440; 179" d="M447.675,182.68h3.509a.675.675,0,0,0,0-1.35h-3.509a.675.675,0,1,0,0,1.35Z" transform="translate(-444.976 -158.341)" fill="currentColor" stroke="currentColor" stroke-width="1"/>
    <path id="&#x41a;&#x43e;&#x43d;&#x442;&#x443;&#x440;_180" data-name="&#x41a;&#x43e;&#x43d;&#x442;&#x443;&#x440; 180" d="M450.675,208.02h3.509a.675.675,0,1,0,0-1.35h-3.509a.675.675,0,1,0,0,1.35Z" transform="translate(-448.381 -180.261)" fill="currentColor" stroke="currentColor" stroke-width="1"/>
    <path id="&#x41a;&#x43e;&#x43d;&#x442;&#x443;&#x440;_181" data-name="&#x41a;&#x43e;&#x43d;&#x442;&#x443;&#x440; 181" d="M454.675,233.35h3.509a.675.675,0,0,0,0-1.35h-3.509a.675.675,0,1,0,0,1.35Z" transform="translate(-452.921 -202.172)" fill="currentColor" stroke="currentColor" stroke-width="1"/>
    <path id="&#x41a;&#x43e;&#x43d;&#x442;&#x443;&#x440;_182" data-name="&#x41a;&#x43e;&#x43d;&#x442;&#x443;&#x440; 182" d="M240.675,129.828a.675.675,0,0,0,.675-.675v-6.479a.675.675,0,1,0-1.35,0v6.479A.675.675,0,0,0,240.675,129.828Z" transform="translate(-206.528 -107.018)" fill="currentColor" stroke="currentColor" stroke-width="1"/>
    <path id="&#x41a;&#x43e;&#x43d;&#x442;&#x443;&#x440;_183" data-name="&#x41a;&#x43e;&#x43d;&#x442;&#x443;&#x440; 183" d="M262.675,129.828a.675.675,0,0,0,.675-.675v-6.479a.675.675,0,1,0-1.35,0v6.479A.675.675,0,0,0,262.675,129.828Z" transform="translate(-231.497 -107.018)" fill="currentColor" stroke="currentColor" stroke-width="1"/>
    <path id="&#x41a;&#x43e;&#x43d;&#x442;&#x443;&#x440;_184" data-name="&#x41a;&#x43e;&#x43d;&#x442;&#x443;&#x440; 184" d="M203.675,335.35h12.957a.675.675,0,1,0,0-1.35H203.675a.675.675,0,1,0,0,1.35Z" transform="translate(-177.491 -290.405)" fill="currentColor" stroke="currentColor" stroke-width="1"/>
    <path id="&#x41a;&#x43e;&#x43d;&#x442;&#x443;&#x440;_185" data-name="&#x41a;&#x43e;&#x43d;&#x442;&#x443;&#x440; 185" d="M203.675,368.85h12.957a.675.675,0,1,0,0-1.35H203.675a.675.675,0,1,0,0,1.35Z" transform="translate(-177.491 -319.383)" fill="currentColor" stroke="currentColor" stroke-width="1"/>
    <path id="&#x41a;&#x43e;&#x43d;&#x442;&#x443;&#x440;_186" data-name="&#x41a;&#x43e;&#x43d;&#x442;&#x443;&#x440; 186" d="M203.675,402.35h12.957a.675.675,0,1,0,0-1.35H203.675a.675.675,0,1,0,0,1.35Z" transform="translate(-177.491 -348.362)" fill="currentColor" stroke="currentColor" stroke-width="1"/>
    <path id="&#x41a;&#x43e;&#x43d;&#x442;&#x443;&#x440;_187" data-name="&#x41a;&#x43e;&#x43d;&#x442;&#x443;&#x440; 187" d="M366.526,55.2A.675.675,0,0,0,367,54.05l-4.859-4.859a.676.676,0,0,0-.956.956l4.859,4.859A.675.675,0,0,0,366.526,55.2Z" transform="translate(-348.71 -43.866)" fill="currentColor" stroke="currentColor" stroke-width="1"/>
    <path id="&#x41a;&#x43e;&#x43d;&#x442;&#x443;&#x440;_188" data-name="&#x41a;&#x43e;&#x43d;&#x442;&#x443;&#x440; 188" d="M361.67,55.2a.675.675,0,0,0,.478-.2l4.859-4.859a.676.676,0,1,0-.956-.956l-4.859,4.859a.675.675,0,0,0,.478,1.153Z" transform="translate(-348.713 -43.866)" fill="currentColor" stroke="currentColor" stroke-width="1"/>
    <path id="&#x41a;&#x43e;&#x43d;&#x442;&#x443;&#x440;_189" data-name="&#x41a;&#x43e;&#x43d;&#x442;&#x443;&#x440; 189" d="M84.053,23.727a.661.661,0,0,0,.3-.073l.12-.061a.675.675,0,1,0-.609-1.2l-.12.061a.675.675,0,0,0,.305,1.277Zm2.529-1.28a.661.661,0,0,0,.3-.073l.12-.061a.675.675,0,1,0-.61-1.2l-.12.061a.675.675,0,0,0,.305,1.277Zm2.529-1.278a.675.675,0,0,0,.3-.073l.12-.062a.675.675,0,1,0-.609-1.2l-.12.061a.675.675,0,0,0,.305,1.278Zm2.529-1.28a.683.683,0,0,0,.3-.073l.12-.061a.675.675,0,0,0-.609-1.205l-.12.061a.675.675,0,0,0,.305,1.278Zm2.529-1.28a.675.675,0,0,0,.3-.073l.12-.061a.675.675,0,1,0-.609-1.2l-.12.061a.675.675,0,0,0,.305,1.277Z" transform="translate(-39.022 -16.355)" fill="currentColor" stroke="currentColor" stroke-width="1"/>
    <path id="&#x41a;&#x43e;&#x43d;&#x442;&#x443;&#x440;_190" data-name="&#x41a;&#x43e;&#x43d;&#x442;&#x443;&#x440; 190" d="M94.648,91.476a.675.675,0,0,0,.282-1.289l-.121-.057a.675.675,0,1,0-.564,1.227l.123.057A.675.675,0,0,0,94.648,91.476Zm-2.575-1.185A.675.675,0,0,0,92.355,89l-.121-.057a.675.675,0,1,0-.564,1.227l.123.055a.648.648,0,0,0,.281.057ZM89.5,89.107a.675.675,0,0,0,.282-1.288l-.123-.057a.675.675,0,0,0-.563,1.227l.123.055a.675.675,0,0,0,.281.057Zm-2.575-1.184a.675.675,0,0,0,.282-1.289l-.121-.055a.675.675,0,1,0-.564,1.226l.123.057a.675.675,0,0,0,.281.057ZM84.347,86.74a.675.675,0,0,0,.282-1.289l-.121-.055a.675.675,0,1,0-.564,1.221l.121.057a.675.675,0,0,0,.282.061Z" transform="translate(-39.381 -75.28)" fill="currentColor" stroke="currentColor" stroke-width="1"/>
    <path id="&#x41a;&#x43e;&#x43d;&#x442;&#x443;&#x440;_191" data-name="&#x41a;&#x43e;&#x43d;&#x442;&#x443;&#x440; 191" d="M44.795,71.35h.135a.675.675,0,1,0,0-1.35h-.135a.675.675,0,1,0,0,1.35Zm2.834,0h.135a.675.675,0,1,0,0-1.35h-.135a.675.675,0,1,0,0,1.35Zm2.834,0H50.6a.675.675,0,1,0,0-1.35h-.135a.675.675,0,1,0,0,1.35Zm2.834,0h.135a.675.675,0,1,0,0-1.35H53.3a.675.675,0,1,0,0,1.35Zm2.834,0h.135a.675.675,0,1,0,0-1.35h-.135a.675.675,0,1,0,0,1.35Zm2.834,0H59.1a.675.675,0,1,0,0-1.35h-.135a.675.675,0,1,0,0,1.35Zm2.834,0h.135a.675.675,0,1,0,0-1.35H61.8a.675.675,0,1,0,0,1.35Z" transform="translate(-1.351 -62.037)" fill="currentColor" stroke="currentColor" stroke-width="1"/>
  </g>
</symbol><symbol id="picture-5" viewBox="0 0 79.056 48.566">
  <g id="&#x421;&#x433;&#x440;&#x443;&#x43f;&#x43f;&#x438;&#x440;&#x43e;&#x432;&#x430;&#x442;&#x44c;_137" data-name="&#x421;&#x433;&#x440;&#x443;&#x43f;&#x43f;&#x438;&#x440;&#x43e;&#x432;&#x430;&#x442;&#x44c; 137" transform="translate(-9.483 -104.545)">
    <path fill="currentColor" id="&#x41a;&#x43e;&#x43d;&#x442;&#x443;&#x440;_153" data-name="&#x41a;&#x43e;&#x43d;&#x442;&#x443;&#x440; 153" d="M88.458,123.218a1.282,1.282,0,0,0-1.2-.836H57.775a10.763,10.763,0,0,0,2.786-6.969,10.869,10.869,0,0,0-17.338-8.733L20,122.978a12.869,12.869,0,0,0-2.374,1.11c-7.553,4.515-10.36,14.172-6.257,21.527a14.655,14.655,0,0,0,12.414,7.5h.045l30.75,0a1.282,1.282,0,0,0,.837-.311l32.675-28.162A1.283,1.283,0,0,0,88.458,123.218ZM44.71,108.77l.029-.021A8.3,8.3,0,0,1,58,115.413c0,3.436-2.623,6-4.2,7.227L35.222,136.206a11.828,11.828,0,0,0-.459-6.434l-.028-.076q-.082-.22-.173-.436c-.017-.041-.034-.082-.051-.123-.058-.135-.12-.268-.184-.4-.021-.043-.04-.087-.061-.13-.085-.172-.174-.342-.268-.51s-.176-.305-.268-.455l-.039-.063q-.141-.225-.291-.441l-.016-.022a11.181,11.181,0,0,0-7.508-4.665l-.044-.007c-.153-.023-.306-.044-.461-.062l-.043-.006Zm9.4,41.774-30.251,0a12.109,12.109,0,0,1-10.242-6.181c-3.434-6.156-1.042-14.265,5.333-18.075a10.239,10.239,0,0,1,2.093-.952c.106-.034.212-.067.319-.1h0A9.617,9.617,0,0,1,24,124.868a9.5,9.5,0,0,1,1.135.068c.075.009.15.019.224.03l.121.018a9.313,9.313,0,0,1,.913.2,8.658,8.658,0,0,1,4.633,3.056l.015.02q.25.324.471.675l.043.069c.07.114.139.229.2.346s.136.254.2.382l.037.074c.062.129.122.258.178.388l.013.03q.085.2.159.4l.007.018a9.568,9.568,0,0,1-.33,7.169l-.05.109q-.065.141-.135.281c-.017.035-.034.07-.051.1a10.36,10.36,0,0,1-3.91,4.167,5.971,5.971,0,0,1-4.633.694,5.349,5.349,0,0,1-3.319-2.572,6.183,6.183,0,0,1,2.43-8.176,2.361,2.361,0,0,1,1.831-.278,2.036,2.036,0,0,1,1.263.981,2.441,2.441,0,0,1-.989,3.223,1.283,1.283,0,1,0,1.317,2.2,5.022,5.022,0,0,0,1.912-6.675,4.581,4.581,0,0,0-2.838-2.208,4.907,4.907,0,0,0-3.812.554,8.767,8.767,0,0,0-3.354,11.627,7.9,7.9,0,0,0,4.9,3.8,8.514,8.514,0,0,0,6.612-.971,12.885,12.885,0,0,0,4.174-4.008,1.274,1.274,0,0,0,.339-.175l21.282-15.542H83.8Z" transform="translate(0 0)"/>
    <path fill="currentColor" id="&#x41a;&#x43e;&#x43d;&#x442;&#x443;&#x440;_154" data-name="&#x41a;&#x43e;&#x43d;&#x442;&#x443;&#x440; 154" d="M222.752,135.339a8.31,8.31,0,0,1,8.3,8.3,1.283,1.283,0,0,0,2.565,0,10.878,10.878,0,0,0-10.863-10.868,1.283,1.283,0,0,0,0,2.565Z" transform="translate(-177.998 -23.703)"/>
    <path fill="currentColor" id="&#x41a;&#x43e;&#x43d;&#x442;&#x443;&#x440;_155" data-name="&#x41a;&#x43e;&#x43d;&#x442;&#x443;&#x440; 155" d="M123.449,206.537a8.312,8.312,0,0,1,8.3,8.3,1.283,1.283,0,0,0,2.565,0,10.88,10.88,0,0,0-10.87-10.866,1.283,1.283,0,1,0,0,2.565Z" transform="translate(-94.616 -83.486)"/>
    <path fill="currentColor" id="&#x41a;&#x43e;&#x43d;&#x442;&#x443;&#x440;_156" data-name="&#x41a;&#x43e;&#x43d;&#x442;&#x443;&#x440; 156" d="M224.264,241.411a1.283,1.283,0,1,0,1.513,2.071l12.6-9.2a1.283,1.283,0,0,0-1.513-2.071Z" transform="translate(-179.903 -106.988)"/>
    <path fill="currentColor" id="&#x41a;&#x43e;&#x43d;&#x442;&#x443;&#x440;_157" data-name="&#x41a;&#x43e;&#x43d;&#x442;&#x443;&#x440; 157" d="M172.382,370.364l-15.6-.071h-.006a1.283,1.283,0,0,0-.006,2.565l15.6.071h.006a1.283,1.283,0,0,0,.006-2.565Z" transform="translate(-122.598 -223.141)"/>
  </g>
</symbol><symbol id="picture-6" viewBox="0 0 61.781 48.966">
  <path id="&#x41a;&#x43e;&#x43d;&#x442;&#x443;&#x440;_149" data-name="&#x41a;&#x43e;&#x43d;&#x442;&#x443;&#x440; 149" d="M65.347,24.548a2.189,2.189,0,0,0-2.02-1.3H56.473l8.51-9.57A2.208,2.208,0,0,0,63.338,10h-41.2a2.21,2.21,0,0,0-1.656.74L4.783,28.4a2.208,2.208,0,0,0,1.645,3.676h6.865l-8.51,9.57a2.208,2.208,0,0,0,1.656,3.676h6.854l-8.51,9.57a2.208,2.208,0,0,0,1.656,3.676H47.632a2.185,2.185,0,0,0,1.656-.751l15.7-17.66a2.208,2.208,0,0,0-1.656-3.676H56.473l8.51-9.57a2.181,2.181,0,0,0,.364-2.373ZM22.134,12.208H63.327L53.338,23.444a10.553,10.553,0,0,1-5.133.916,10.349,10.349,0,0,1-3.654-.993,1.125,1.125,0,0,0-.96,0,1.112,1.112,0,0,0-.6.751,7.96,7.96,0,0,1-5.011,5.762H6.439l15.7-17.66ZM50.645,26.479l-.706.795a7.742,7.742,0,0,1-5.773,2.594H42.113A9.7,9.7,0,0,0,43.5,28.3a10.271,10.271,0,0,0,1.291-2.461,12.539,12.539,0,0,0,3.245.706,11.866,11.866,0,0,0,2.6-.077ZM63.327,38.687l-15.7,17.66H6.439L16.251,45.31h31.38a2.185,2.185,0,0,0,1.656-.751l5.221-5.872h8.819ZM47.632,43.1H6.439l9.813-11.038h27.9a9.952,9.952,0,0,0,7.428-3.333l2.925-3.289h8.819L47.632,43.1ZM18.326,35.376a1.1,1.1,0,1,1-1.1-1.1A1.107,1.107,0,0,1,18.326,35.376Zm6.623,0a1.1,1.1,0,1,1-1.1-1.1A1.107,1.107,0,0,1,24.949,35.376Zm6.623,0a1.1,1.1,0,1,1-1.1-1.1A1.107,1.107,0,0,1,31.572,35.376Zm6.623,0a1.1,1.1,0,1,1-1.1-1.1A1.107,1.107,0,0,1,38.194,35.376Zm6.623,0a1.1,1.1,0,1,1-1.1-1.1A1.107,1.107,0,0,1,44.817,35.376Zm6.623,0a1.1,1.1,0,1,1-1.1-1.1A1.107,1.107,0,0,1,51.44,35.376ZM55.3,31.513a1.1,1.1,0,1,1-1.1-1.1A1.107,1.107,0,0,1,55.3,31.513ZM15.015,39.791a1.1,1.1,0,1,1-1.1-1.1A1.107,1.107,0,0,1,15.015,39.791Zm6.623,0a1.1,1.1,0,1,1-1.1-1.1A1.107,1.107,0,0,1,21.638,39.791Zm6.623,0a1.1,1.1,0,1,1-1.1-1.1A1.107,1.107,0,0,1,28.26,39.791Zm6.623,0a1.1,1.1,0,1,1-1.1-1.1A1.107,1.107,0,0,1,34.883,39.791Zm6.623,0a1.1,1.1,0,1,1-1.1-1.1A1.107,1.107,0,0,1,41.506,39.791Zm6.623,0a1.1,1.1,0,1,1-1.1-1.1A1.107,1.107,0,0,1,48.128,39.791Z" transform="translate(-3.992 -9.8)" stroke="currentColor" stroke-width="0.4"/>
</symbol><symbol id="picture-7" viewBox="0 0 53.01 50.084">
  <g id="&#x421;&#x433;&#x440;&#x443;&#x43f;&#x43f;&#x438;&#x440;&#x43e;&#x432;&#x430;&#x442;&#x44c;_136" data-name="&#x421;&#x433;&#x440;&#x443;&#x43f;&#x43f;&#x438;&#x440;&#x43e;&#x432;&#x430;&#x442;&#x44c; 136" transform="translate(-2.683 -3.144)">
    <path id="&#x41a;&#x43e;&#x43d;&#x442;&#x443;&#x440;_151" data-name="&#x41a;&#x43e;&#x43d;&#x442;&#x443;&#x440; 151" d="M69.905,4.032a.409.409,0,0,0-.534.054l-11.3,7.621V4.459a.469.469,0,0,0-.319-.48.483.483,0,0,0-.585.107L48.055,13.2V4.459a.521.521,0,0,0-.427-.534.535.535,0,0,0-.585.266L39.952,17.3a.4.4,0,0,0-.054.266V38.886a.473.473,0,0,0,.054.266l7.034,13.057a.557.557,0,0,0,.48.266h.107A.575.575,0,0,0,48,51.941V43.2l9.114,9.114a.482.482,0,0,0,.373.161.314.314,0,0,0,.212-.054.513.513,0,0,0,.319-.48V44.7l11.3,7.621a.753.753,0,0,0,.319.107.473.473,0,0,0,.266-.054.557.557,0,0,0,.266-.48V4.459a.471.471,0,0,0-.264-.427ZM46.986,49.814,40.964,38.728V17.677L46.986,6.59Zm10.021.8-8.953-8.955V14.746l8.953-8.953Zm12.1.319L58.073,43.419V12.986L69.159,5.525V50.933Z" transform="translate(-15.226)" fill="currentColor" stroke="currentColor" stroke-width="1.5"/>
    <path id="&#x41a;&#x43e;&#x43d;&#x442;&#x443;&#x440;_152" data-name="&#x41a;&#x43e;&#x43d;&#x442;&#x443;&#x440; 152" d="M14.519,4.288a.612.612,0,0,0-.641-.268.575.575,0,0,0-.427.534v8.741L4.34,4.127a.739.739,0,0,0-.587-.107.618.618,0,0,0-.319.48V51.932a.468.468,0,0,0,.319.48c.107.054.161.107.214.107a.482.482,0,0,0,.373-.161l9.114-9.114v8.741a.521.521,0,0,0,.427.534h.107a.565.565,0,0,0,.48-.266L21.5,39.2a.4.4,0,0,0,.054-.266V17.614a.473.473,0,0,0-.054-.266ZM4.5,50.655V5.834l9.006,8.953V41.7ZM20.542,38.769,14.573,49.855V6.632l5.968,11.086Z" transform="translate(0 -0.041)" fill="currentColor" stroke="currentColor" stroke-width="1.5"/>
  </g>
</symbol><symbol id="picture-8" viewBox="0 0 63.494 60.768">
  <g id="&#x421;&#x433;&#x440;&#x443;&#x43f;&#x43f;&#x438;&#x440;&#x43e;&#x432;&#x430;&#x442;&#x44c;_140" data-name="&#x421;&#x433;&#x440;&#x443;&#x43f;&#x43f;&#x438;&#x440;&#x43e;&#x432;&#x430;&#x442;&#x44c; 140" transform="translate(-979.9 -1517.538)">
    <path id="&#x412;&#x44b;&#x447;&#x438;&#x442;&#x430;&#x43d;&#x438;&#x435;_1" data-name="&#x412;&#x44b;&#x447;&#x438;&#x442;&#x430;&#x43d;&#x438;&#x435; 1" d="M31.344,24.96v0l-.662-.332L0,6.916V3.009l.666-.333L5.3,0,6.612.757,1.993,3.427,8.978,7.5,31.344,20.387,55.126,6.67l5.569-3.243L56.078.758,57.39,0l4.636,2.676.666.333V6.916L32.009,24.627l-.665.332ZM61.361,4.588,32.009,21.552v1.663L61.36,6.169V4.588ZM1.327,4.506V6.169L30.682,23.215V21.47L1.327,4.506Z" transform="translate(980.302 1552.99)" fill="currentColor" stroke="currentColor" stroke-width="0.8"/>
    <path id="&#x412;&#x44b;&#x447;&#x438;&#x442;&#x430;&#x43d;&#x438;&#x435;_2" data-name="&#x412;&#x44b;&#x447;&#x438;&#x442;&#x430;&#x43d;&#x438;&#x435; 2" d="M31.344,24.96v0l-.662-.332L0,6.916V3.009l.666-.333L5.3,0,6.612.757,1.993,3.427,8.978,7.5,31.344,20.387,55.126,6.67l5.569-3.243L56.078.758,57.39,0l4.636,2.676.666.333V6.916L32.009,24.627l-.665.332ZM61.361,4.588,32.009,21.552v1.663L61.36,6.169V4.588ZM1.327,4.506V6.169L30.682,23.215V21.47L1.327,4.506Z" transform="translate(980.302 1543.012)" fill="currentColor" stroke="currentColor" stroke-width="0.8"/>
    <path id="&#x41a;&#x43e;&#x43d;&#x442;&#x443;&#x440;_161" data-name="&#x41a;&#x43e;&#x43d;&#x442;&#x443;&#x440; 161" d="M74.328,43.611,43.647,25.9,12.965,43.611l-.665.333v3.908L42.982,65.562l.665.333.665-.333L74.994,47.851V43.943ZM42.982,64.148,13.63,47.1V45.44L42.982,62.4v1.746Zm.665-2.827h0L21.28,48.433,14.3,44.359,43.647,27.4,73,44.359,67.427,47.6ZM73.663,47.1,44.312,64.148V62.485L73.663,45.523Z" transform="translate(968 1492.1)" fill="currentColor" stroke="currentColor" stroke-width="0.8"/>
  </g>
</symbol><symbol id="picture-9" viewBox="0 0 53.01 50.084">
  <g id="&#x421;&#x433;&#x440;&#x443;&#x43f;&#x43f;&#x438;&#x440;&#x43e;&#x432;&#x430;&#x442;&#x44c;_135" data-name="&#x421;&#x433;&#x440;&#x443;&#x43f;&#x43f;&#x438;&#x440;&#x43e;&#x432;&#x430;&#x442;&#x44c; 135" transform="translate(-2.683 -3.144)">
    <path id="&#x41a;&#x43e;&#x43d;&#x442;&#x443;&#x440;_151" data-name="&#x41a;&#x43e;&#x43d;&#x442;&#x443;&#x440; 151" d="M69.905,4.032a.409.409,0,0,0-.534.054l-11.3,7.621V4.459a.469.469,0,0,0-.319-.48.483.483,0,0,0-.585.107L48.055,13.2V4.459a.521.521,0,0,0-.427-.534.535.535,0,0,0-.585.266L39.952,17.3a.4.4,0,0,0-.054.266V38.886a.473.473,0,0,0,.054.266l7.034,13.057a.557.557,0,0,0,.48.266h.107A.575.575,0,0,0,48,51.941V43.2l9.114,9.114a.482.482,0,0,0,.373.161.314.314,0,0,0,.212-.054.513.513,0,0,0,.319-.48V44.7l11.3,7.621a.753.753,0,0,0,.319.107.473.473,0,0,0,.266-.054.557.557,0,0,0,.266-.48V4.459a.471.471,0,0,0-.264-.427ZM46.986,49.814,40.964,38.728V17.677L46.986,6.59Zm10.021.8-8.953-8.955V14.746l8.953-8.953Zm12.1.319L58.073,43.419V12.986L69.159,5.525V50.933Z" transform="translate(-15.226)" fill="currentColor" stroke="currentColor" stroke-width="1.5"/>
    <path id="&#x41a;&#x43e;&#x43d;&#x442;&#x443;&#x440;_152" data-name="&#x41a;&#x43e;&#x43d;&#x442;&#x443;&#x440; 152" d="M14.519,4.288a.612.612,0,0,0-.641-.268.575.575,0,0,0-.427.534v8.741L4.34,4.127a.739.739,0,0,0-.587-.107.618.618,0,0,0-.319.48V51.932a.468.468,0,0,0,.319.48c.107.054.161.107.214.107a.482.482,0,0,0,.373-.161l9.114-9.114v8.741a.521.521,0,0,0,.427.534h.107a.565.565,0,0,0,.48-.266L21.5,39.2a.4.4,0,0,0,.054-.266V17.614a.473.473,0,0,0-.054-.266ZM4.5,50.655V5.834l9.006,8.953V41.7ZM20.542,38.769,14.573,49.855V6.632l5.968,11.086Z" transform="translate(0 -0.041)" fill="currentColor" stroke="currentColor" stroke-width="1.5"/>
  </g>
</symbol></svg>